<svg width="25" height="17" viewBox="0 0 25 17" fill="none" xmlns="http://www.w3.org/2000/svg">
<path d="M10.0694 7.44054C11.4497 6.78082 12.1701 5.78255 12.1701 4.22873C12.1701 1.1645 9.88715 0.417969 7.2526 0.417969H0V15.7999H7.4566C10.2517 15.7999 12.8776 14.4588 12.8776 11.3338C12.8776 9.40234 11.9618 7.97439 10.0694 7.44054V7.44054ZM3.38108 3.04384H6.55382C7.77344 3.04384 8.87153 3.38672 8.87153 4.80165C8.87153 6.10807 8.01649 6.63325 6.8099 6.63325H3.38108V3.04384V3.04384ZM6.99653 13.1871H3.38108V8.95095H7.06597C8.55469 8.95095 9.49653 9.57161 9.49653 11.1471C9.49653 12.701 8.3724 13.1871 6.99653 13.1871V13.1871ZM22.5564 2.74002H16.3194V1.22526H22.5564V2.74002V2.74002ZM25 10.3919C25 7.09766 23.0729 4.35026 19.579 4.35026C16.1849 4.35026 13.8802 6.90234 13.8802 10.2444C13.8802 13.7122 16.0634 16.0907 19.579 16.0907C22.2396 16.0907 23.9627 14.8928 24.7917 12.3451H22.092C21.8012 13.2956 20.6033 13.799 19.6745 13.799C17.8819 13.799 16.9401 12.7487 16.9401 10.9648H24.974C24.987 10.7826 25 10.5872 25 10.3919ZM16.9444 9.03776C17.0443 7.57509 18.0165 6.65929 19.4835 6.65929C21.02 6.65929 21.7925 7.56207 21.9227 9.03776H16.9444Z" fill="white"/>
</svg>
