<svg width="25" height="25" viewBox="0 0 25 25" fill="none" xmlns="http://www.w3.org/2000/svg">
<path d="M8.88184 19.4612C8.88184 19.5588 8.76953 19.637 8.62793 19.637C8.4668 19.6516 8.35449 19.5735 8.35449 19.4612C8.35449 19.3635 8.4668 19.2854 8.6084 19.2854C8.75488 19.2708 8.88184 19.3489 8.88184 19.4612ZM7.36328 19.2415C7.3291 19.3391 7.42676 19.4514 7.57324 19.4807C7.7002 19.5295 7.84668 19.4807 7.87598 19.3831C7.90527 19.2854 7.8125 19.1731 7.66602 19.1292C7.53906 19.095 7.39746 19.1438 7.36328 19.2415ZM9.52148 19.1584C9.37988 19.1926 9.28223 19.2854 9.29687 19.3977C9.31152 19.4954 9.43848 19.5588 9.58496 19.5247C9.72656 19.4905 9.82422 19.3977 9.80957 19.3C9.79492 19.2073 9.66309 19.1438 9.52148 19.1584ZM12.7344 0.44751C5.96191 0.44751 0.78125 5.58911 0.78125 12.3616C0.78125 17.7766 4.18945 22.4104 9.05762 24.0413C9.68262 24.1536 9.90234 23.7678 9.90234 23.4504C9.90234 23.1477 9.8877 21.4778 9.8877 20.4524C9.8877 20.4524 6.46973 21.1848 5.75195 18.9973C5.75195 18.9973 5.19531 17.5764 4.39453 17.2102C4.39453 17.2102 3.27637 16.4436 4.47266 16.4583C4.47266 16.4583 5.68848 16.5559 6.35742 17.718C7.42676 19.6028 9.21875 19.0608 9.91699 18.7385C10.0293 17.9573 10.3467 17.4153 10.6982 17.093C7.96875 16.7903 5.21484 16.3948 5.21484 11.6975C5.21484 10.3547 5.58594 9.68091 6.36719 8.82153C6.24023 8.50415 5.8252 7.19556 6.49414 5.5061C7.51465 5.18872 9.86328 6.82446 9.86328 6.82446C10.8398 6.55103 11.8896 6.40942 12.9297 6.40942C13.9697 6.40942 15.0195 6.55103 15.9961 6.82446C15.9961 6.82446 18.3447 5.18384 19.3652 5.5061C20.0342 7.20044 19.6191 8.50415 19.4922 8.82153C20.2734 9.68579 20.752 10.3596 20.752 11.6975C20.752 16.4094 17.876 16.7854 15.1465 17.093C15.5957 17.4788 15.9766 18.2112 15.9766 19.3586C15.9766 21.0041 15.9619 23.0403 15.9619 23.4407C15.9619 23.7581 16.1865 24.1438 16.8066 24.0315C21.6895 22.4104 25 17.7766 25 12.3616C25 5.58911 19.5068 0.44751 12.7344 0.44751ZM5.52734 17.2883C5.46387 17.3372 5.47852 17.4495 5.56152 17.5422C5.63965 17.6204 5.75195 17.6545 5.81543 17.5911C5.87891 17.5422 5.86426 17.4299 5.78125 17.3372C5.70313 17.259 5.59082 17.2249 5.52734 17.2883ZM5 16.8928C4.96582 16.9563 5.01465 17.0344 5.1123 17.0833C5.19043 17.1321 5.28809 17.1174 5.32227 17.0491C5.35645 16.9856 5.30762 16.9075 5.20996 16.8586C5.1123 16.8293 5.03418 16.844 5 16.8928ZM6.58203 18.6311C6.50391 18.6946 6.5332 18.8411 6.64551 18.9338C6.75781 19.0461 6.89941 19.0608 6.96289 18.9827C7.02637 18.9192 6.99707 18.7727 6.89941 18.6799C6.79199 18.5676 6.64551 18.553 6.58203 18.6311ZM6.02539 17.9133C5.94727 17.9622 5.94727 18.0891 6.02539 18.2014C6.10352 18.3137 6.23535 18.3625 6.29883 18.3137C6.37695 18.2502 6.37695 18.1233 6.29883 18.011C6.23047 17.8987 6.10352 17.8499 6.02539 17.9133Z" fill="white"/>
</svg>
