<svg width="21" height="19" viewBox="0 0 21 19" fill="none" xmlns="http://www.w3.org/2000/svg">
<path d="M18.793 0.248465C18.504 0.261035 18.2388 0.344145 18.0059 0.435965C17.7906 0.520724 17.0178 0.845563 15.7871 1.36175C14.5564 1.87793 12.9257 2.56232 11.1875 3.29339C7.71108 4.75551 3.80447 6.40022 1.80273 7.24261C1.73399 7.27125 1.45482 7.35671 1.14648 7.59222C0.837434 7.82827 0.494141 8.34055 0.494141 8.90081C0.494141 9.35276 0.719754 9.81306 0.992188 10.0766C1.26462 10.3401 1.54072 10.4633 1.77148 10.5551C2.44657 10.8239 4.53272 11.6571 5.43945 12.0199C5.7571 12.9719 6.50316 15.2142 6.67773 15.766H6.67578C6.81779 16.2153 6.95621 16.508 7.14844 16.7524C7.24455 16.8746 7.35927 16.9853 7.5 17.0727C7.55399 17.1062 7.61378 17.1322 7.67383 17.1567C7.6822 17.1602 7.69082 17.1611 7.69922 17.1645L7.67578 17.1586C7.69319 17.1656 7.70882 17.1759 7.72656 17.1821C7.75548 17.192 7.77552 17.1917 7.81445 17.1996C7.95146 17.2418 8.08821 17.2699 8.21484 17.2699C8.75845 17.2699 9.0918 16.975 9.0918 16.975L9.11328 16.9594L11.4609 14.9731L14.3359 17.6313C14.3873 17.7039 14.7984 18.2621 15.752 18.2621C16.3201 18.2621 16.7712 17.9829 17.0586 17.6879C17.346 17.393 17.525 17.0911 17.6055 16.6821V16.6782V16.6762C17.6614 16.3858 20.4219 2.52972 20.4219 2.52972L20.416 2.55315C20.5017 2.17081 20.527 1.80105 20.4258 1.42425C20.3246 1.04744 20.0515 0.679715 19.7227 0.486746C19.3938 0.293777 19.0819 0.235895 18.793 0.248465ZM18.3984 2.43792C18.29 2.98232 15.8334 15.3241 15.6738 16.143L12.8184 13.5043C12.0823 12.8238 10.9346 12.7999 10.1699 13.4457L8.71289 14.6782L9.49023 11.6391C9.49023 11.6391 14.8528 6.21095 15.1758 5.89495C15.4358 5.64195 15.4902 5.55326 15.4902 5.46526C15.4902 5.34826 15.43 5.26409 15.291 5.26409C15.166 5.26409 14.9963 5.38387 14.9062 5.43987C13.7577 6.1559 8.84037 8.95831 6.45898 10.3129C6.36953 10.2594 6.28155 10.2038 6.18359 10.1645C5.40221 9.85176 3.90036 9.24964 3.02148 8.89886C5.09575 8.02586 8.65139 6.5299 11.9629 5.13714C13.7008 4.4062 15.3311 3.72119 16.5605 3.2055C17.5984 2.77019 18.1398 2.54479 18.3984 2.43792ZM15.6426 16.2875H15.6445C15.6445 16.2879 15.6427 16.295 15.6426 16.2953C15.6443 16.2868 15.6414 16.2937 15.6426 16.2875Z" fill="white"/>
</svg>
