<svg width="24" height="15" viewBox="0 0 24 15" fill="none" xmlns="http://www.w3.org/2000/svg">
<path d="M23.2486 1.2519C23.4092 0.709364 23.2486 0.310059 22.476 0.310059H19.9196C19.2686 0.310059 18.9691 0.65294 18.8085 1.03488C18.8085 1.03488 17.5064 4.20763 15.6661 6.26492C15.0715 6.85954 14.7981 7.05051 14.4725 7.05051C14.312 7.05051 14.0646 6.85954 14.0646 6.317V1.2519C14.0646 0.600857 13.8823 0.310059 13.3441 0.310059H9.32498C8.91699 0.310059 8.67394 0.613878 8.67394 0.895996C8.67394 1.51232 9.59408 1.65554 9.68956 3.39166V7.15902C9.68956 7.98367 9.54199 8.13558 9.21647 8.13558C8.34842 8.13558 6.23904 4.94982 4.98904 1.30398C4.7373 0.596517 4.48991 0.310059 3.83453 0.310059H1.2781C0.548937 0.310059 0.401367 0.65294 0.401367 1.03488C0.401367 1.71197 1.26942 5.07568 4.44217 9.52013C6.55588 12.554 9.53331 14.1989 12.2416 14.1989C13.8692 14.1989 14.0689 13.8344 14.0689 13.205C14.0689 10.3057 13.9213 10.0323 14.7373 10.0323C15.1149 10.0323 15.7659 10.2233 17.285 11.6859C19.0212 13.422 19.3076 14.1989 20.2798 14.1989H22.8363C23.5654 14.1989 23.9344 13.8344 23.7217 13.1139C23.2356 11.5991 19.95 8.4828 19.8024 8.27447C19.4248 7.78836 19.5333 7.57134 19.8024 7.13732C19.8067 7.13298 22.9274 2.74061 23.2486 1.2519V1.2519Z" fill="white"/>
</svg>
