<svg width="21" height="21" viewBox="0 0 21 21" fill="none" xmlns="http://www.w3.org/2000/svg">
<path d="M17.4933 3.16245C15.6259 1.28552 13.136 0.254395 10.4846 0.254395C5.02483 0.254395 0.57723 4.70201 0.572478 10.1617C0.572478 11.9104 1.02864 13.6115 1.89345 15.1178L0.491699 20.2544L5.74709 18.8764C7.19637 19.6652 8.8262 20.0833 10.4846 20.0833H10.4893C15.949 20.0833 20.3966 15.6357 20.4014 10.1712C20.3966 7.52453 19.3655 5.03463 17.4933 3.16245ZM10.4846 18.406C9.00202 18.406 7.55275 18.0068 6.28879 17.2561L5.98943 17.0755L2.87231 17.8928L3.70386 14.8517L3.50904 14.5381C2.68224 13.2266 2.24983 11.7108 2.24983 10.157C2.24983 5.62384 5.94667 1.927 10.4893 1.927C12.6893 1.927 14.7563 2.78706 16.3149 4.34088C17.8687 5.89944 18.724 7.96644 18.724 10.1665C18.7193 14.7139 15.0224 18.406 10.4846 18.406ZM15.0034 12.2382C14.7563 12.1147 13.5399 11.516 13.3118 11.4304C13.0837 11.3497 12.9174 11.3069 12.7559 11.554C12.5896 11.8011 12.1144 12.3618 11.9718 12.5233C11.8293 12.6897 11.682 12.7087 11.4349 12.5851C11.1878 12.4616 10.3895 12.2002 9.44393 11.3544C8.70741 10.6987 8.21323 9.88614 8.06593 9.63905C7.92338 9.39196 8.05167 9.25891 8.17522 9.13536C8.28451 9.02607 8.42231 8.84551 8.54585 8.70296C8.6694 8.56041 8.71216 8.45587 8.79294 8.28956C8.87372 8.12325 8.83571 7.9807 8.77394 7.85715C8.71216 7.73361 8.21799 6.51241 8.00891 6.01823C7.80934 5.53356 7.60501 5.60008 7.45296 5.59533C7.31041 5.58583 7.1441 5.58583 6.97779 5.58583C6.81148 5.58583 6.54538 5.6476 6.3173 5.89469C6.08922 6.14178 5.45249 6.7405 5.45249 7.96169C5.45249 9.18288 6.34106 10.3566 6.4646 10.5229C6.58815 10.6892 8.20848 13.1886 10.6936 14.2625C11.2828 14.5191 11.7438 14.6711 12.1049 14.7852C12.6989 14.9752 13.2358 14.9467 13.6634 14.8849C14.1386 14.8137 15.127 14.2862 15.3361 13.7065C15.5404 13.1268 15.5404 12.6326 15.4786 12.5281C15.4168 12.4236 15.2505 12.3618 15.0034 12.2382Z" fill="white"/>
</svg>
