<?xml version="1.0" standalone="no"?>
  <!DOCTYPE svg PUBLIC "-//W3C//DTD SVG 1.1//EN" "http://www.w3.org/Graphics/SVG/1.1/DTD/svg11.dtd" >
  <svg>
  <metadata>
  Created by font-carrier
  </metadata>
  <defs>
  <font id="EuropeExtNormal" horiz-adv-x="6717" vert-adv-y="6717" >
    <font-face
      
      font-family="EuropeExt"
      
      font-weight="400"
      
      font-stretch="normal"
      
      units-per-em="4096"
      
      ascent="2875"
      
      descent="-888"
      
    />
      <missing-glyph />

      

      
      <glyph glyph-name="uni7f" unicode="&#x7f;" d="M512 0L512 2560L2560 2560L2560 0L512 0M2494 66L2494 2494L578 2494L578 66L2494 66Z"  horiz-adv-x="3072" vert-adv-y="4096"  />

      
      <glyph glyph-name="uni80" unicode="&#x80;" d="M512 0L512 2560L2560 2560L2560 0L512 0M2494 66L2494 2494L578 2494L578 66L2494 66Z"  horiz-adv-x="3072" vert-adv-y="4096"  />

      
      <glyph glyph-name="uni81" unicode="&#x81;" d="M512 0L512 2560L2560 2560L2560 0L512 0M2494 66L2494 2494L578 2494L578 66L2494 66Z"  horiz-adv-x="3072" vert-adv-y="4096"  />

      
      <glyph glyph-name="uni82" unicode="&#x82;" d="M512 0L512 2560L2560 2560L2560 0L512 0M2494 66L2494 2494L578 2494L578 66L2494 66Z"  horiz-adv-x="3072" vert-adv-y="4096"  />

      
      <glyph glyph-name="uni83" unicode="&#x83;" d="M512 0L512 2560L2560 2560L2560 0L512 0M2494 66L2494 2494L578 2494L578 66L2494 66Z"  horiz-adv-x="3072" vert-adv-y="4096"  />

      
      <glyph glyph-name="uni84" unicode="&#x84;" d="M512 0L512 2560L2560 2560L2560 0L512 0M2494 66L2494 2494L578 2494L578 66L2494 66Z"  horiz-adv-x="3072" vert-adv-y="4096"  />

      
      <glyph glyph-name="uni85" unicode="&#x85;" d="M512 0L512 2560L2560 2560L2560 0L512 0M2494 66L2494 2494L578 2494L578 66L2494 66Z"  horiz-adv-x="3072" vert-adv-y="4096"  />

      
      <glyph glyph-name="uni86" unicode="&#x86;" d="M512 0L512 2560L2560 2560L2560 0L512 0M2494 66L2494 2494L578 2494L578 66L2494 66Z"  horiz-adv-x="3072" vert-adv-y="4096"  />

      
      <glyph glyph-name="uni87" unicode="&#x87;" d="M512 0L512 2560L2560 2560L2560 0L512 0M2494 66L2494 2494L578 2494L578 66L2494 66Z"  horiz-adv-x="3072" vert-adv-y="4096"  />

      
      <glyph glyph-name="uni88" unicode="&#x88;" d="M512 0L512 2560L2560 2560L2560 0L512 0M2494 66L2494 2494L578 2494L578 66L2494 66Z"  horiz-adv-x="3072" vert-adv-y="4096"  />

      
      <glyph glyph-name="uni89" unicode="&#x89;" d="M512 0L512 2560L2560 2560L2560 0L512 0M2494 66L2494 2494L578 2494L578 66L2494 66Z"  horiz-adv-x="3072" vert-adv-y="4096"  />

      
      <glyph glyph-name="uni8a" unicode="&#x8a;" d="M512 0L512 2560L2560 2560L2560 0L512 0M2494 66L2494 2494L578 2494L578 66L2494 66Z"  horiz-adv-x="3072" vert-adv-y="4096"  />

      
      <glyph glyph-name="uni8b" unicode="&#x8b;" d="M512 0L512 2560L2560 2560L2560 0L512 0M2494 66L2494 2494L578 2494L578 66L2494 66Z"  horiz-adv-x="3072" vert-adv-y="4096"  />

      
      <glyph glyph-name="uni8c" unicode="&#x8c;" d="M512 0L512 2560L2560 2560L2560 0L512 0M2494 66L2494 2494L578 2494L578 66L2494 66Z"  horiz-adv-x="3072" vert-adv-y="4096"  />

      
      <glyph glyph-name="uni8d" unicode="&#x8d;" d="M512 0L512 2560L2560 2560L2560 0L512 0M2494 66L2494 2494L578 2494L578 66L2494 66Z"  horiz-adv-x="3072" vert-adv-y="4096"  />

      
      <glyph glyph-name="uni8f" unicode="&#x8f;" d="M512 0L512 2560L2560 2560L2560 0L512 0M2494 66L2494 2494L578 2494L578 66L2494 66Z"  horiz-adv-x="3072" vert-adv-y="4096"  />

      
      <glyph glyph-name="uni91" unicode="&#x91;" d="M512 0L512 2560L2560 2560L2560 0L512 0M2494 66L2494 2494L578 2494L578 66L2494 66Z"  horiz-adv-x="3072" vert-adv-y="4096"  />

      
      <glyph glyph-name="uni92" unicode="&#x92;" d="M512 0L512 2560L2560 2560L2560 0L512 0M2494 66L2494 2494L578 2494L578 66L2494 66Z"  horiz-adv-x="3072" vert-adv-y="4096"  />

      
      <glyph glyph-name="uni93" unicode="&#x93;" d="M512 0L512 2560L2560 2560L2560 0L512 0M2494 66L2494 2494L578 2494L578 66L2494 66Z"  horiz-adv-x="3072" vert-adv-y="4096"  />

      
      <glyph glyph-name="uni94" unicode="&#x94;" d="M512 0L512 2560L2560 2560L2560 0L512 0M2494 66L2494 2494L578 2494L578 66L2494 66Z"  horiz-adv-x="3072" vert-adv-y="4096"  />

      
      <glyph glyph-name="uni95" unicode="&#x95;" d="M512 0L512 2560L2560 2560L2560 0L512 0M2494 66L2494 2494L578 2494L578 66L2494 66Z"  horiz-adv-x="3072" vert-adv-y="4096"  />

      
      <glyph glyph-name="uni96" unicode="&#x96;" d="M512 0L512 2560L2560 2560L2560 0L512 0M2494 66L2494 2494L578 2494L578 66L2494 66Z"  horiz-adv-x="3072" vert-adv-y="4096"  />

      
      <glyph glyph-name="uni97" unicode="&#x97;" d="M512 0L512 2560L2560 2560L2560 0L512 0M2494 66L2494 2494L578 2494L578 66L2494 66Z"  horiz-adv-x="3072" vert-adv-y="4096"  />

      
      <glyph glyph-name="uni98" unicode="&#x98;" d="M512 0L512 2560L2560 2560L2560 0L512 0M2494 66L2494 2494L578 2494L578 66L2494 66Z"  horiz-adv-x="3072" vert-adv-y="4096"  />

      
      <glyph glyph-name="uni99" unicode="&#x99;" d="M512 0L512 2560L2560 2560L2560 0L512 0M2494 66L2494 2494L578 2494L578 66L2494 66Z"  horiz-adv-x="3072" vert-adv-y="4096"  />

      
      <glyph glyph-name="uni9a" unicode="&#x9a;" d="M512 0L512 2560L2560 2560L2560 0L512 0M2494 66L2494 2494L578 2494L578 66L2494 66Z"  horiz-adv-x="3072" vert-adv-y="4096"  />

      
      <glyph glyph-name="uni9b" unicode="&#x9b;" d="M512 0L512 2560L2560 2560L2560 0L512 0M2494 66L2494 2494L578 2494L578 66L2494 66Z"  horiz-adv-x="3072" vert-adv-y="4096"  />

      
      <glyph glyph-name="uni9c" unicode="&#x9c;" d="M512 0L512 2560L2560 2560L2560 0L512 0M2494 66L2494 2494L578 2494L578 66L2494 66Z"  horiz-adv-x="3072" vert-adv-y="4096"  />

      
      <glyph glyph-name="uni9d" unicode="&#x9d;" d="M512 0L512 2560L2560 2560L2560 0L512 0M2494 66L2494 2494L578 2494L578 66L2494 66Z"  horiz-adv-x="3072" vert-adv-y="4096"  />

      
      <glyph glyph-name="uni9e" unicode="&#x9e;" d="M512 0L512 2560L2560 2560L2560 0L512 0M2494 66L2494 2494L578 2494L578 66L2494 66Z"  horiz-adv-x="3072" vert-adv-y="4096"  />

      
      <glyph glyph-name="uni9f" unicode="&#x9f;" d="M512 0L512 2560L2560 2560L2560 0L512 0M2494 66L2494 2494L578 2494L578 66L2494 66Z"  horiz-adv-x="3072" vert-adv-y="4096"  />

      
      <glyph glyph-name="unia4" unicode="&#xa4;" d="M512 0L512 2560L2560 2560L2560 0L512 0M2494 66L2494 2494L578 2494L578 66L2494 66Z"  horiz-adv-x="3072" vert-adv-y="4096"  />

      
      <glyph glyph-name="uni2015" unicode="&#x2015;" d="M512 0L512 2560L2560 2560L2560 0L512 0M2494 66L2494 2494L578 2494L578 66L2494 66Z"  horiz-adv-x="3072" vert-adv-y="4096"  />

      
      <glyph glyph-name="uni2016" unicode="&#x2016;" d="M512 0L512 2560L2560 2560L2560 0L512 0M2494 66L2494 2494L578 2494L578 66L2494 66Z"  horiz-adv-x="3072" vert-adv-y="4096"  />

      
      <glyph glyph-name="uni2017" unicode="&#x2017;" d="M512 0L512 2560L2560 2560L2560 0L512 0M2494 66L2494 2494L578 2494L578 66L2494 66Z"  horiz-adv-x="3072" vert-adv-y="4096"  />

      
      <glyph glyph-name="uni201B" unicode="&#x201B;" d="M512 0L512 2560L2560 2560L2560 0L512 0M2494 66L2494 2494L578 2494L578 66L2494 66Z"  horiz-adv-x="3072" vert-adv-y="4096"  />

      
      <glyph glyph-name="uni201F" unicode="&#x201F;" d="M512 0L512 2560L2560 2560L2560 0L512 0M2494 66L2494 2494L578 2494L578 66L2494 66Z"  horiz-adv-x="3072" vert-adv-y="4096"  />

      
      <glyph glyph-name="uni2020" unicode="&#x2020;" d="M512 0L512 2560L2560 2560L2560 0L512 0M2494 66L2494 2494L578 2494L578 66L2494 66Z"  horiz-adv-x="3072" vert-adv-y="4096"  />

      
      <glyph glyph-name="uni2023" unicode="&#x2023;" d="M512 0L512 2560L2560 2560L2560 0L512 0M2494 66L2494 2494L578 2494L578 66L2494 66Z"  horiz-adv-x="3072" vert-adv-y="4096"  />

      
      <glyph glyph-name="uni2024" unicode="&#x2024;" d="M512 0L512 2560L2560 2560L2560 0L512 0M2494 66L2494 2494L578 2494L578 66L2494 66Z"  horiz-adv-x="3072" vert-adv-y="4096"  />

      
      <glyph glyph-name="uni2025" unicode="&#x2025;" d="M512 0L512 2560L2560 2560L2560 0L512 0M2494 66L2494 2494L578 2494L578 66L2494 66Z"  horiz-adv-x="3072" vert-adv-y="4096"  />

      
      <glyph glyph-name="uni2027" unicode="&#x2027;" d="M512 0L512 2560L2560 2560L2560 0L512 0M2494 66L2494 2494L578 2494L578 66L2494 66Z"  horiz-adv-x="3072" vert-adv-y="4096"  />

      
      <glyph glyph-name="uni2028" unicode="&#x2028;" d="M512 0L512 2560L2560 2560L2560 0L512 0M2494 66L2494 2494L578 2494L578 66L2494 66Z"  horiz-adv-x="3072" vert-adv-y="4096"  />

      
      <glyph glyph-name="uni2029" unicode="&#x2029;" d="M512 0L512 2560L2560 2560L2560 0L512 0M2494 66L2494 2494L578 2494L578 66L2494 66Z"  horiz-adv-x="3072" vert-adv-y="4096"  />

      
      <glyph glyph-name="uni202A" unicode="&#x202A;" d="M512 0L512 2560L2560 2560L2560 0L512 0M2494 66L2494 2494L578 2494L578 66L2494 66Z"  horiz-adv-x="3072" vert-adv-y="4096"  />

      
      <glyph glyph-name="uni202B" unicode="&#x202B;" d="M512 0L512 2560L2560 2560L2560 0L512 0M2494 66L2494 2494L578 2494L578 66L2494 66Z"  horiz-adv-x="3072" vert-adv-y="4096"  />

      
      <glyph glyph-name="uni202C" unicode="&#x202C;" d="M512 0L512 2560L2560 2560L2560 0L512 0M2494 66L2494 2494L578 2494L578 66L2494 66Z"  horiz-adv-x="3072" vert-adv-y="4096"  />

      
      <glyph glyph-name="uni202D" unicode="&#x202D;" d="M512 0L512 2560L2560 2560L2560 0L512 0M2494 66L2494 2494L578 2494L578 66L2494 66Z"  horiz-adv-x="3072" vert-adv-y="4096"  />

      
      <glyph glyph-name="uni202E" unicode="&#x202E;" d="M512 0L512 2560L2560 2560L2560 0L512 0M2494 66L2494 2494L578 2494L578 66L2494 66Z"  horiz-adv-x="3072" vert-adv-y="4096"  />

      
      <glyph glyph-name="uni202F" unicode="&#x202F;" d="M512 0L512 2560L2560 2560L2560 0L512 0M2494 66L2494 2494L578 2494L578 66L2494 66Z"  horiz-adv-x="3072" vert-adv-y="4096"  />

      
      <glyph glyph-name="uni2031" unicode="&#x2031;" d="M512 0L512 2560L2560 2560L2560 0L512 0M2494 66L2494 2494L578 2494L578 66L2494 66Z"  horiz-adv-x="3072" vert-adv-y="4096"  />

      
      <glyph glyph-name="uni2032" unicode="&#x2032;" d="M512 0L512 2560L2560 2560L2560 0L512 0M2494 66L2494 2494L578 2494L578 66L2494 66Z"  horiz-adv-x="3072" vert-adv-y="4096"  />

      
      <glyph glyph-name="uni2033" unicode="&#x2033;" d="M512 0L512 2560L2560 2560L2560 0L512 0M2494 66L2494 2494L578 2494L578 66L2494 66Z"  horiz-adv-x="3072" vert-adv-y="4096"  />

      
      <glyph glyph-name="uni2034" unicode="&#x2034;" d="M512 0L512 2560L2560 2560L2560 0L512 0M2494 66L2494 2494L578 2494L578 66L2494 66Z"  horiz-adv-x="3072" vert-adv-y="4096"  />

      
      <glyph glyph-name="uni2035" unicode="&#x2035;" d="M512 0L512 2560L2560 2560L2560 0L512 0M2494 66L2494 2494L578 2494L578 66L2494 66Z"  horiz-adv-x="3072" vert-adv-y="4096"  />

      
      <glyph glyph-name="uni2036" unicode="&#x2036;" d="M512 0L512 2560L2560 2560L2560 0L512 0M2494 66L2494 2494L578 2494L578 66L2494 66Z"  horiz-adv-x="3072" vert-adv-y="4096"  />

      
      <glyph glyph-name="uni2037" unicode="&#x2037;" d="M512 0L512 2560L2560 2560L2560 0L512 0M2494 66L2494 2494L578 2494L578 66L2494 66Z"  horiz-adv-x="3072" vert-adv-y="4096"  />

      
      <glyph glyph-name="uni2038" unicode="&#x2038;" d="M512 0L512 2560L2560 2560L2560 0L512 0M2494 66L2494 2494L578 2494L578 66L2494 66Z"  horiz-adv-x="3072" vert-adv-y="4096"  />

      
      <glyph glyph-name="uni21" unicode="&#x21;" d="M549 688L254 688L254 2843L549 2843L549 688M254 0L254 319L549 319L549 0L254 0Z"  horiz-adv-x="803" vert-adv-y="4096"  />

      
      <glyph glyph-name="uni22" unicode="&#x22;" d="M844 2900L1073 2900L1024 2195L893 2195L844 2900M295 2900L524 2900L483 2195L344 2195L295 2900Z"  horiz-adv-x="1384" vert-adv-y="4096"  />

      
      <glyph glyph-name="uni23" unicode="&#x23;" d="M1040 2777L1270 2777L1130 2245L1737 2245L1876 2777L2097 2777L1966 2245L2499 2245L2441 2015L1901 2015L1778 1507L2310 1507L2253 1278L1720 1278L1581 721L1360 721L1499 1278L893 1278L754 737L532 737L672 1278L115 1278L164 1507L729 1507L852 2015L295 2015L360 2245L909 2245L1040 2777M1688 2015L1073 2015L950 1507L1556 1507L1688 2015Z"  horiz-adv-x="2621" vert-adv-y="4096"  />

      
      <glyph glyph-name="uni24" unicode="&#x24;" d="M1688 2572L979 2572Q825 2572 719 2522.50Q613 2473 556.50 2355.50Q500 2238 500 2040Q500 1597 979 1597L1688 1597L1688 2572M1982 287L2654 287Q2950 287 3068.50 424Q3187 561 3187 819Q3187 1007 3149.50 1109Q3112 1211 2998 1261Q2884 1311 2654 1311L1982 1311L1982 287M1688 1311L1032 1311Q719 1311 529 1400Q339 1489 259.50 1650.50Q180 1812 180 2040Q180 2284 277 2469.50Q374 2655 570 2757Q766 2859 1049 2859L1688 2859L1688 3113L1982 3113L1982 2859L2507 2859Q2768 2859 2952 2812Q3136 2765 3253.50 2667Q3371 2569 3426.50 2421Q3482 2273 3482 2064L3187 2064Q3182 2234 3121.50 2344.50Q3061 2455 2910 2513.50Q2759 2572 2494 2572L1982 2572L1982 1597L2601 1597Q2856 1597 3027.50 1552.50Q3199 1508 3305 1415Q3411 1322 3458.50 1177Q3506 1032 3506 819Q3506 584 3432 402.50Q3358 221 3164.50 110.50Q2971 0 2634 0L1982 0L1982-369L1688-369L1688 0L1061 0Q656 0 430.50 197Q205 394 205 795L500 795Q506 545 633.50 416Q761 287 1040 287L1688 287L1688 1311Z"  horiz-adv-x="3695" vert-adv-y="4096"  />

      
      <glyph glyph-name="uni25" unicode="&#x25;" d="M1860 2195Q1860 2423 1777 2506Q1694 2589 1466 2589L860 2589Q692 2589 605.50 2555.50Q519 2522 485 2438.50Q451 2355 451 2195L451 1720Q451 1513 539.50 1429.50Q628 1346 860 1335L1462 1335Q1611 1341 1697.50 1377.50Q1784 1414 1822 1494.50Q1860 1575 1860 1720L1860 2195M2114 1696Q2114 1474 2052.50 1347Q1991 1220 1856.50 1163Q1722 1106 1491 1098Q1264 1081 1155 1081Q1054 1081 827 1098Q593 1106 456.50 1163Q320 1220 258.50 1347Q197 1474 197 1696L197 2220Q197 2455 254.50 2589.50Q312 2724 448 2783.50Q584 2843 827 2843L1491 2843Q1708 2843 1843.50 2785.50Q1979 2728 2046.50 2589.50Q2114 2451 2114 2220L2114 1696M2916 2982L2073-139L1835-139L2671 2982L2916 2982M4547 606Q4547 384 4487.50 255Q4428 126 4294.50 67Q4161 8 3932 0L3269 0Q3031 8 2892.50 67.50Q2754 127 2692 256Q2630 385 2630 606L2630 1122Q2630 1300 2662.50 1419Q2695 1538 2769 1613Q2843 1688 2963.50 1720.50Q3084 1753 3269 1753L3932 1753Q4144 1753 4278 1693Q4412 1633 4479.50 1493.50Q4547 1354 4547 1122L4547 606M4301 1106Q4301 1260 4266 1344.50Q4231 1429 4146.50 1464Q4062 1499 3908 1499L3293 1499Q3053 1499 2972.50 1419Q2892 1339 2892 1106L2892 631Q2892 416 2980 331Q3068 246 3289 246L3903 246Q4053 246 4139 281Q4225 316 4263 399Q4301 482 4301 631L4301 1106Z"  horiz-adv-x="4710" vert-adv-y="4096"  />

      
      <glyph glyph-name="uni26" unicode="&#x26;" d="M3252 180Q3244 174 3206.50 147Q3169 120 3087 85Q3005 50 2873 25Q2741 0 2556 0L1204 0Q766 0 485.50 249Q205 498 205 983Q205 1309 343 1484.50Q481 1660 619.50 1712Q758 1764 827 1769Q827 1765 791 1801.50Q755 1838 725.50 1917.50Q696 1997 696 2138Q696 2388 825 2546Q954 2704 1176 2773.50Q1398 2843 1688 2843L2548 2843Q2867 2843 3067.50 2745.50Q3268 2648 3362 2511.50Q3456 2375 3485 2251Q3514 2127 3514 2040L3514 2023L3211 2023Q3199 2548 2548 2548L1647 2548Q1331 2548 1165 2432Q999 2316 999 2105Q999 1941 1076 1870.50Q1153 1800 1204 1786L3236 573Q3316 649 3437.50 824.50Q3559 1000 3564 1204L3858 1204Q3858 908 3723 695.50Q3588 483 3498 401L3777 238L3596-33L3252 180M1065 1516Q924 1516 712 1416.50Q500 1317 500 983Q500 658 665 476.50Q830 295 1163 295L2589 295Q2720 295 2813 326Q2906 357 2941 377L1065 1516Z"  horiz-adv-x="4047" vert-adv-y="4096"  />

      
      <glyph glyph-name="uni27" unicode="&#x27;" d="M295 2900L524 2900L483 2195L344 2195L295 2900Z"  horiz-adv-x="852" vert-adv-y="4096"  />

      
      <glyph glyph-name="uni28" unicode="&#x28;" d="M139 549L139 2064Q139 2390 270 2620Q401 2850 637.50 2971.50Q874 3093 1180 3105L1180 2785Q809 2767 634 2593Q459 2419 459 2064L459 541Q459 260 535 108Q611-44 764-104Q917-164 1180-172L1180-492Q841-480 609.50-374Q378-268 258.50-41Q139 186 139 549Z"  horiz-adv-x="1294" vert-adv-y="4096"  />

      
      <glyph glyph-name="uni29" unicode="&#x29;" d="M1147 549Q1147 10 889-231Q631-472 115-492L115-172Q376-164 527.50-104Q679-44 753 107.50Q827 259 827 541L827 2064Q827 2303 751 2458Q675 2613 517 2693Q359 2773 115 2785L115 3105Q417 3093 651.50 2971.50Q886 2850 1016.50 2620Q1147 2390 1147 2064L1147 549Z"  horiz-adv-x="1294" vert-adv-y="4096"  />

      
      <glyph glyph-name="uni2a" unicode="&#x2a;" d="M770 2245Q708 2245 1130 2171Q1205 2160 1241.50 2112.50Q1278 2065 1278 2007Q1278 1949 1240 1904.50Q1202 1860 1147 1860Q1081 1860 999 1942Q917 2036 847.50 2107.50Q778 2179 745 2212Q755 2169 781.50 2074Q808 1979 852 1851Q852 1839 856 1812Q860 1785 860 1778Q860 1707 815.50 1660.50Q771 1614 713 1614Q659 1614 616 1657Q573 1700 573 1769Q573 1800 590 1851Q626 1982 657.50 2071.50Q689 2161 705 2204Q714 2204 451 1925Q382 1843 303 1843Q245 1843 200.50 1890.50Q156 1938 156 1991Q156 2039 197 2084Q238 2129 319 2146Q405 2169 488.50 2192Q572 2215 616 2227Q660 2239 680 2245Q679 2245 564 2270Q449 2295 319 2318Q242 2331 199 2374Q156 2417 156 2466Q156 2517 198 2565Q240 2613 295 2613Q369 2613 442 2540Q538 2438 604 2374Q670 2310 705 2277Q701 2277 590 2630Q590 2645 581.50 2667Q573 2689 573 2695Q573 2763 620 2811Q667 2859 721 2859Q774 2859 817 2817Q860 2775 860 2703Q860 2654 852 2630Q838 2587 816.50 2516Q795 2445 773 2370.50Q751 2296 745 2277Q736 2277 983 2556Q1048 2621 1122 2621Q1177 2621 1223.50 2577Q1270 2533 1270 2482Q1270 2368 1114 2335Q1020 2314 915.50 2285.50Q811 2257 770 2245Z"  horiz-adv-x="1425" vert-adv-y="4096"  />

      
      <glyph glyph-name="uni2b" unicode="&#x2b;" d="M221 1335L811 1335L811 1925L1081 1925L1081 1335L1679 1335L1679 1065L1081 1065L1081 467L811 467L811 1065L221 1065L221 1335Z"  horiz-adv-x="1917" vert-adv-y="4096"  />

      
      <glyph glyph-name="uni2c" unicode="&#x2c;" d="M246-8L246 311L565 311L565-221Q565-370 451-442L295-442Q410-355 410-221L410-8L246-8Z"  horiz-adv-x="762" vert-adv-y="4096"  />

      
      <glyph glyph-name="uni2d" unicode="&#x2d;" d="M221 1343L1524 1343L1524 1040L221 1040L221 1343Z"  horiz-adv-x="1778" vert-adv-y="4096"  />

      
      <glyph glyph-name="uni2e" unicode="&#x2e;" d="M246 0L246 319L565 319L565 0L246 0Z"  horiz-adv-x="762" vert-adv-y="4096"  />

      
      <glyph glyph-name="uni2f" unicode="&#x2f;" d="M1262 2982L352-369L33-369L942 2982L1262 2982Z"  horiz-adv-x="1294" vert-adv-y="4096"  />

      
      <glyph glyph-name="uni30" unicode="&#x30;" d="M3080 1835Q3080 2125 3011 2283Q2942 2441 2783 2506.50Q2624 2572 2339 2572L1225 2572Q915 2572 761.50 2519Q608 2466 544 2312Q480 2158 475 1835Q475 1742 471 1599Q467 1456 467 1401Q467 1346 471 1207Q475 1068 475 975Q479 659 548.50 514.50Q618 370 766 328.50Q914 287 1225 287L2339 287Q2636 287 2783.50 329Q2931 371 3003.50 516Q3076 661 3080 975L3080 1835M3375 975Q3368 570 3267 362Q3166 154 2952.50 79.50Q2739 5 2343 0L1229 0Q926 3 733.50 43Q541 83 420 185.50Q299 288 241 478Q183 668 180 975Q180 1068 176 1207Q172 1346 172 1401Q172 1456 176 1599Q180 1742 180 1835Q183 2150 235.50 2345.50Q288 2541 405.50 2651Q523 2761 717.50 2807Q912 2853 1229 2859L2343 2859Q2709 2854 2926.50 2768Q3144 2682 3256 2461Q3368 2240 3375 1835L3375 975Z"  horiz-adv-x="3555" vert-adv-y="4096"  />

      
      <glyph glyph-name="uni31" unicode="&#x31;" d="M2146 0L1827 0L1827 2548L1057 1794L852 1991L1696 2843L2146 2843L2146 0Z"  horiz-adv-x="3555" vert-adv-y="4096"  />

      
      <glyph glyph-name="uni32" unicode="&#x32;" d="M3318 1901Q3318 1588 3233.50 1405.50Q3149 1223 2925.50 1136Q2702 1049 2290 1049L1266 1049Q516 1049 516 532L516 287L3318 287L3318 0L221 0L221 532Q221 918 479 1126.50Q737 1335 1270 1335L2294 1335Q2577 1335 2733.50 1387.50Q2890 1440 2956.50 1562.50Q3023 1685 3023 1901Q3023 2158 2963 2300.50Q2903 2443 2744.50 2507.50Q2586 2572 2290 2572L1266 2572Q870 2572 720.50 2447.50Q571 2323 565 2064L246 2064Q246 2337 358 2513.50Q470 2690 697.50 2774.50Q925 2859 1270 2859L2294 2859Q2600 2859 2795.50 2810.50Q2991 2762 3105 2654Q3219 2546 3268.50 2365Q3318 2184 3318 1901Z"  horiz-adv-x="3555" vert-adv-y="4096"  />

      
      <glyph glyph-name="uni33" unicode="&#x33;" d="M1479 1327L1479 1614L2359 1614Q2576 1614 2711.50 1652.50Q2847 1691 2918.50 1794.50Q2990 1898 2990 2089Q2990 2233 2920 2338.50Q2850 2444 2707.50 2500Q2565 2556 2355 2556L1262 2556Q949 2556 775.50 2422.50Q602 2289 590 2023L295 2023Q287 2023 287 2040Q287 2170 351 2350Q415 2530 632 2686.50Q849 2843 1262 2843L2294 2843Q2735 2843 3010 2689.50Q3285 2536 3285 2138Q3285 1929 3229 1796Q3173 1663 3098.50 1598.50Q3024 1534 2960.50 1510.50Q2897 1487 2884 1483Q2903 1477 2962.50 1460Q3022 1443 3097.50 1383Q3173 1323 3229 1189.50Q3285 1056 3285 836Q3285 517 3157.50 331.50Q3030 146 2811.50 73Q2593 0 2294 0L1266 0Q766 0 530.50 195.50Q295 391 295 803L590 803Q611 287 1266 287L2359 287Q2592 287 2728.50 338Q2865 389 2927.50 507.50Q2990 626 2990 836Q2990 1056 2924 1162Q2858 1268 2729 1297.50Q2600 1327 2359 1327L1479 1327Z"  horiz-adv-x="3555" vert-adv-y="4096"  />

      
      <glyph glyph-name="uni34" unicode="&#x34;" d="M2941 2843L2941 901L3322 901L3322 614L2941 614L2941 0L2646 0L2646 614L270 614L270 909L2621 2843L2941 2843M2646 901L2646 2507L700 901L2646 901Z"  horiz-adv-x="3555" vert-adv-y="4096"  />

      
      <glyph glyph-name="uni35" unicode="&#x35;" d="M3310 918Q3310 671 3248 496Q3186 321 3057 209Q2928 97 2730.50 44.50Q2533-8 2253-8L1237-8Q205-8 205 803L500 803Q503 671 542.50 574Q582 477 666.50 411.50Q751 346 892 312.50Q1033 279 1237 279L2249 279Q2545 279 2711.50 347Q2878 415 2946.50 554.50Q3015 694 3015 918Q3015 1135 2940 1276.50Q2865 1418 2696.50 1489.50Q2528 1561 2249 1561L995 1561Q793 1561 697 1508Q601 1455 549 1311L254 1311L254 2843L3240 2843L3240 2556L549 2556L549 1634Q597 1712 706 1779.50Q815 1847 963 1847L2249 1847Q2623 1847 2857.50 1749.50Q3092 1652 3201 1448Q3310 1244 3310 918Z"  horiz-adv-x="3555" vert-adv-y="4096"  />

      
      <glyph glyph-name="uni36" unicode="&#x36;" d="M1266 2589Q990 2579 829.50 2518Q669 2457 600.50 2340.50Q532 2224 532 2040L532 1380Q716 1667 1237 1667L1270 1667L2286 1667Q2664 1667 2896 1588Q3128 1509 3233 1346Q3338 1183 3338 926L3338 803Q3333 515 3226 329.50Q3119 144 2884.50 51.50Q2650-41 2269-41L1282-41Q737-41 487.50 168Q238 377 238 778L238 2040Q238 2249 296 2401.50Q354 2554 477 2654.50Q600 2755 794.50 2809Q989 2863 1270 2875L2286 2875Q2812 2857 3065 2663.50Q3318 2470 3318 2064L3023 2064Q3013 2234 2945.50 2344Q2878 2454 2719.50 2516.50Q2561 2579 2290 2589L1266 2589M1282 1380L1286 1380Q962 1380 800.50 1317Q639 1254 588 1142.50Q537 1031 532 848Q532 670 583.50 540Q635 410 797 328Q959 246 1266 246L2290 246Q2710 246 2874.50 368.50Q3039 491 3039 721L3039 823Q3034 1006 2977.50 1124Q2921 1242 2757.50 1311Q2594 1380 2286 1380L1282 1380Z"  horiz-adv-x="3555" vert-adv-y="4096"  />

      
      <glyph glyph-name="uni37" unicode="&#x37;" d="M90 2843L3478 2843L3478 2572L918 4L504 4L3084 2560L90 2560L90 2843Z"  horiz-adv-x="3555" vert-adv-y="4096"  />

      
      <glyph glyph-name="uni38" unicode="&#x38;" d="M1286 1319Q876 1319 724.50 1182.50Q573 1046 573 786Q573 616 638 497.50Q703 379 859.50 312.50Q1016 246 1286 246L2331 246Q2743 246 2903.50 385Q3064 524 3064 786Q3064 974 3005 1088Q2946 1202 2786 1260.50Q2626 1319 2331 1319L1286 1319M1286 2589Q898 2589 764.50 2457Q631 2325 631 2060Q631 1898 680.50 1805.50Q730 1713 871.50 1664.50Q1013 1616 1286 1606L2331 1606Q2614 1617 2757.50 1663Q2901 1709 2953.50 1802Q3006 1895 3006 2064Q3006 2331 2851.50 2460Q2697 2589 2331 2589L1286 2589M2335 2875Q2693 2875 2908 2786.50Q3123 2698 3216.50 2514.50Q3310 2331 3310 2040Q3310 1830 3240.50 1705Q3171 1580 3080 1530Q2989 1480 2911 1470Q2833 1460 2818 1458Q2852 1455 2929 1432.50Q3006 1410 3110 1340.50Q3214 1271 3290.50 1132.50Q3367 994 3367 778Q3367-41 2335-41L1286-41Q933-41 703 49Q473 139 363.50 320.50Q254 502 254 778Q254 1054 377 1205.50Q500 1357 625 1404.50Q750 1452 811 1458Q795 1459 717 1469Q639 1479 544.50 1530Q450 1581 380.50 1704Q311 1827 311 2040Q311 2330 408.50 2513.50Q506 2697 720 2786Q934 2875 1286 2875L2335 2875Z"  horiz-adv-x="3555" vert-adv-y="4096"  />

      
      <glyph glyph-name="uni39" unicode="&#x39;" d="M2310 246Q2719 261 2881 388.50Q3043 516 3043 795L3043 1454Q2860 1167 2339 1167L2306 1167L1290 1167Q913 1167 680.50 1246Q448 1325 343 1488.50Q238 1652 238 1909L238 2032Q241 2247 301.50 2404.50Q362 2562 487.50 2666Q613 2770 815.50 2822.50Q1018 2875 1307 2875L2294 2875Q2839 2875 3088.50 2666Q3338 2457 3338 2056L3338 795Q3338 582 3280 431.50Q3222 281 3099 181Q2976 81 2782 27Q2588-27 2306-41L1290-41Q943-29 714 59.50Q485 148 371.50 323Q258 498 258 770L553 770Q561 604 629.50 492.50Q698 381 855.50 318.50Q1013 256 1286 246L2310 246M2294 2589L1290 2589Q982 2589 819 2520Q656 2451 599 2333Q542 2215 537 2032L537 1929Q537 1700 701.50 1577Q866 1454 1286 1454L2310 1454Q2617 1454 2778.50 1536Q2940 1618 2991.50 1746.50Q3043 1875 3043 2056Q3037 2312 2863.50 2450.50Q2690 2589 2294 2589Z"  horiz-adv-x="3555" vert-adv-y="4096"  />

      
      <glyph glyph-name="uni3a" unicode="&#x3a;" d="M246 1491L246 1810L565 1810L565 1491L246 1491M246 0L246 319L565 319L565 0L246 0Z"  horiz-adv-x="762" vert-adv-y="4096"  />

      
      <glyph glyph-name="uni3b" unicode="&#x3b;" d="M246 1491L246 1810L565 1810L565 1491L246 1491M246-8L246 311L565 311L565-221Q565-370 451-442L295-442Q410-355 410-221L410-8L246-8Z"  horiz-adv-x="762" vert-adv-y="4096"  />

      
      <glyph glyph-name="uni3c" unicode="&#x3c;" d="M131 1253L1303 2048L1303 1729L606 1253L1303 795L1303 483L131 1253Z"  horiz-adv-x="1516" vert-adv-y="4096"  />

      
      <glyph glyph-name="uni3d" unicode="&#x3d;" d="M221 999L1524 999L1524 705L221 705L221 999M221 1655L1524 1655L1524 1360L221 1360L221 1655Z"  horiz-adv-x="1778" vert-adv-y="4096"  />

      
      <glyph glyph-name="uni3e" unicode="&#x3e;" d="M1384 1253L213 483L213 795L909 1253L213 1729L213 2048L1384 1253Z"  horiz-adv-x="1516" vert-adv-y="4096"  />

      
      <glyph glyph-name="uni3f" unicode="&#x3f;" d="M1368 0L1368 319L1688 319L1688 0L1368 0M2097 1303Q1871 1303 1779.50 1213.50Q1688 1124 1688 934L1688 688L1368 688L1368 967Q1368 1589 2097 1589Q2419 1589 2620 1621.50Q2821 1654 2938.50 1758Q3056 1862 3056 2064Q3056 2268 2994 2379.50Q2932 2491 2777.50 2540Q2623 2589 2331 2589L1212 2589Q818 2589 662 2456.50Q506 2324 500 2064L180 2064Q180 2875 1188 2875L2327 2875Q2715 2875 2944.50 2791Q3174 2707 3274.50 2529Q3375 2351 3375 2064Q3375 1761 3233 1595.50Q3091 1430 2817 1366.50Q2543 1303 2097 1303Z"  horiz-adv-x="3604" vert-adv-y="4096"  />

      
      <glyph glyph-name="uni40" unicode="&#x40;" d="M1303 2171Q1163 2171 1058 2102.50Q953 2034 898.50 1924Q844 1814 844 1696Q844 1532 946 1413Q1048 1294 1229 1294Q1436 1294 1553.50 1433Q1671 1572 1671 1753Q1671 1920 1574 2045.50Q1477 2171 1303 2171M1343 2777Q1017 2777 782 2632Q547 2487 429 2253.50Q311 2020 311 1761Q311 1504 429 1271.50Q547 1039 781.50 896.50Q1016 754 1343 754Q1473 754 1612 785.50Q1751 817 1858.50 872Q1966 927 2015 991L2105 877Q2025 778 1800.50 696Q1576 614 1327 614Q1045 614 824 709.50Q603 805 455 966.50Q307 1128 231.50 1333Q156 1538 156 1753Q156 1970 234 2180.50Q312 2391 463 2556Q614 2721 838.50 2818.50Q1063 2916 1343 2916Q1583 2916 1814.50 2829.50Q2046 2743 2228 2542Q2410 2341 2482 2023Q2507 1820 2507 1769Q2507 1614 2461 1475Q2415 1336 2305 1245.50Q2195 1155 2015 1155Q1843 1155 1787 1262.50Q1731 1370 1729 1442Q1711 1370 1601 1262.50Q1491 1155 1221 1155Q1054 1155 932.50 1229Q811 1303 749.50 1426.50Q688 1550 688 1688Q688 1841 762 1984.50Q836 2128 978 2219Q1120 2310 1311 2310Q1482 2310 1584 2242.50Q1686 2175 1729 2093Q1772 2011 1778 1999L1827 2286L1958 2286L1868 1573Q1868 1564 1864 1544Q1860 1524 1860 1516Q1860 1426 1905 1364.50Q1950 1303 2040 1303Q2204 1303 2285.50 1445.50Q2367 1588 2367 1786Q2367 1828 2343 1999Q2283 2214 2186 2365.50Q2089 2517 1961 2607.50Q1833 2698 1679 2737.50Q1525 2777 1343 2777Z"  horiz-adv-x="2671" vert-adv-y="4096"  />

      
      <glyph glyph-name="uni41" unicode="&#x41;" d="M360 0L33 0L1507 2843L1958 2843L3432 0L3088 0L2724 713L725 713L360 0M885 999L2572 999L1729 2638L885 999Z"  horiz-adv-x="3465" vert-adv-y="4096"  />

      
      <glyph glyph-name="uni42" unicode="&#x42;" d="M549 2556L549 1630L2482 1630Q2786 1630 2923 1726Q3060 1822 3060 2081Q3060 2322 2926.50 2439Q2793 2556 2482 2556L549 2556M254 0L254 2843L2367 2843Q2875 2843 3117 2662.50Q3359 2482 3359 2114Q3359 1822 3250.50 1682Q3142 1542 3002 1499Q3079 1482 3178 1418.50Q3277 1355 3359 1209.50Q3441 1064 3441 836Q3441 527 3329.50 342.50Q3218 158 2998 79Q2778 0 2441 0L254 0M549 1343L549 287L2556 287Q2852 287 2999 417Q3146 547 3146 836Q3146 1109 2991 1226Q2836 1343 2531 1343L549 1343Z"  horiz-adv-x="3645" vert-adv-y="4096"  />

      
      <glyph glyph-name="uni43" unicode="&#x43;" d="M2466-8L1221-8Q837-8 610 91Q383 190 280 410Q177 630 172 1008L172 1835Q177 2213 280 2439.50Q383 2666 612 2770.50Q841 2875 1221 2875L2466 2875Q3498 2875 3498 2064L3203 2064Q3203 2231 3135.50 2347Q3068 2463 2904.50 2526Q2741 2589 2470 2589L1225 2589Q930 2589 767.50 2521.50Q605 2454 536 2291.50Q467 2129 467 1835L467 1008Q467 792 506.50 653Q546 514 634 432.50Q722 351 864.50 315Q1007 279 1225 279L2470 279Q2869 279 3036 403.50Q3203 528 3203 803L3498 803Q3498 532 3395.50 352.50Q3293 173 3064 82.50Q2835-8 2466-8Z"  horiz-adv-x="3736" vert-adv-y="4096"  />

      
      <glyph glyph-name="uni44" unicode="&#x44;" d="M573 287L2499 287Q2724 287 2859.50 329.50Q2995 372 3065.50 461.50Q3136 551 3161.50 689Q3187 827 3187 1057L3187 1810Q3187 2106 3129.50 2264Q3072 2422 2924 2489Q2776 2556 2494 2556L573 2556L573 287M279 2843L2474 2843Q2766 2843 2954 2793.50Q3142 2744 3257.50 2628Q3373 2512 3426 2314Q3479 2116 3482 1810L3482 1057Q3477 672 3387.50 444.50Q3298 217 3080.50 108.50Q2863 0 2474 0L279 0L279 2843Z"  horiz-adv-x="3695" vert-adv-y="4096"  />

      
      <glyph glyph-name="uni45" unicode="&#x45;" d="M246 0L246 2843L2765 2843L2765 2556L541 2556L541 1614L2707 1614L2707 1327L541 1327L541 287L2765 287L2765 0L246 0Z"  horiz-adv-x="3023" vert-adv-y="4096"  />

      
      <glyph glyph-name="uni46" unicode="&#x46;" d="M246 0L246 2843L2765 2843L2765 2556L541 2556L541 1614L2707 1614L2707 1327L541 1327L541 0L246 0Z"  horiz-adv-x="3023" vert-adv-y="4096"  />

      
      <glyph glyph-name="uni47" unicode="&#x47;" d="M2499 0L1245 0Q950 0 750 59.50Q550 119 429 240Q308 361 254 540.50Q200 720 197 975L197 1835Q202 2217 304.50 2443Q407 2669 635 2772Q863 2875 1245 2875L2499 2875Q3017 2875 3270 2675Q3523 2475 3523 2064L3228 2064Q3222 2322 3056.50 2455.50Q2891 2589 2494 2589L1241 2589Q944 2589 785 2520.50Q626 2452 561.50 2291.50Q497 2131 492 1835L492 975Q497 706 567 558Q637 410 797 348.50Q957 287 1241 287L2494 287Q2780 287 2931.50 338.50Q3083 390 3151 536Q3219 682 3219 971L3219 1065L1823 1065L1823 1352L3531 1352L3531 1130Q3531 786 3483 572.50Q3435 359 3322.50 234Q3210 109 3011.50 54.50Q2813 0 2499 0Z"  horiz-adv-x="3695" vert-adv-y="4096"  />

      
      <glyph glyph-name="uni48" unicode="&#x48;" d="M279 0L279 2843L573 2843L573 1614L3097 1614L3097 2843L3391 2843L3391 0L3097 0L3097 1319L573 1319L573 0L279 0Z"  horiz-adv-x="3604" vert-adv-y="4096"  />

      
      <glyph glyph-name="uni49" unicode="&#x49;" d="M713 0L418 0L418 2843L713 2843L713 0Z"  horiz-adv-x="1155" vert-adv-y="4096"  />

      
      <glyph glyph-name="uni4a" unicode="&#x4a;" d="M156 950L451 950L451 811Q451 552 621 422.50Q791 293 1204 287L1970 287Q2373 293 2546.50 429Q2720 565 2720 868L2720 2843L3015 2843L3015 1016Q3015 653 2923.50 435Q2832 217 2605 110.50Q2378 4 1974 0L1204 0Q651 6 403.50 193.50Q156 381 156 737L156 950Z"  horiz-adv-x="3203" vert-adv-y="4096"  />

      
      <glyph glyph-name="uni4b" unicode="&#x4b;" d="M205 0L205 2843L500 2843L500 1626L975 1626L2773 2847L3289 2847L1282 1487L3338 0L2822 0L987 1339L500 1339L500 0L205 0Z"  horiz-adv-x="3387" vert-adv-y="4096"  />

      
      <glyph glyph-name="uni4c" unicode="&#x4c;" d="M279 0L279 2843L573 2843L573 287L2716 287L2716 0L279 0Z"  horiz-adv-x="2933" vert-adv-y="4096"  />

      
      <glyph glyph-name="uni4d" unicode="&#x4d;" d="M4375 2843L3744 2843L2310 418L868 2843L238 2843L238 0L532 0L532 2613L700 2613L2232 0L2384 0L3916 2613L4080 2613L4080 0L4375 0L4375 2843Z"  horiz-adv-x="4620" vert-adv-y="4096"  />

      
      <glyph glyph-name="uni4e" unicode="&#x4e;" d="M238 0L238 2843L893 2843L3080 295L3080 2843L3375 2843L3375 0L2949 0L696 2621L532 2621L532 0L238 0Z"  horiz-adv-x="3604" vert-adv-y="4096"  />

      
      <glyph glyph-name="uni4f" unicode="&#x4f;" d="M3244 1884Q3239 2172 3174.50 2321Q3110 2470 2957 2529.50Q2804 2589 2511 2589L1266 2589Q992 2589 831.50 2526.50Q671 2464 593 2310Q515 2156 508 1884L508 975Q511 769 552.50 636Q594 503 683 426.50Q772 350 912.50 318.50Q1053 287 1266 287L2511 287Q2818 287 2970 343.50Q3122 400 3180.50 542Q3239 684 3244 975L3244 1884M3539 975Q3536 669 3482 479.50Q3428 290 3310 185.50Q3192 81 3003 40.50Q2814 0 2515 0L1270 0Q980 0 779.50 51.50Q579 103 456 215.50Q333 328 274.50 513.50Q216 699 213 975L213 1860Q216 2139 271 2329.50Q326 2520 446.50 2640.50Q567 2761 767 2818Q967 2875 1270 2875L2515 2875Q2877 2875 3096 2791Q3315 2707 3425 2486Q3535 2265 3539 1860L3539 975Z"  horiz-adv-x="3736" vert-adv-y="4096"  />

      
      <glyph glyph-name="uni50" unicode="&#x50;" d="M254 4L254 2843L2171 2843Q2528 2843 2746.50 2756.50Q2965 2670 3067.50 2477Q3170 2284 3170 1966Q3170 1650 3071 1479.50Q2972 1309 2759.50 1242.50Q2547 1176 2175 1176L549 1176L549 4L254 4M549 1462L2261 1462Q2502 1462 2631.50 1500.50Q2761 1539 2818 1645.50Q2875 1752 2875 1966Q2875 2292 2741 2424Q2607 2556 2290 2556L549 2556L549 1462Z"  horiz-adv-x="3334" vert-adv-y="4096"  />

      
      <glyph glyph-name="uni51" unicode="&#x51;" d="M3244 975L3244 1860Q3241 2106 3205 2246Q3169 2386 3089 2458Q3009 2530 2875 2555Q2741 2580 2511 2580L1266 2580Q1042 2580 895 2542.50Q748 2505 661.50 2420.50Q575 2336 537.50 2200.50Q500 2065 500 1860L500 975Q500 776 540.50 644.50Q581 513 671 435.50Q761 358 904.50 324Q1048 290 1266 287L2503 287Q2628 287 2768.50 303Q2909 319 2966 352L1974 991L2154 1229L3187 557Q3244 691 3244 975M3449 401L3678 246L3514 0L3277 164Q3162 74 3000.50 40Q2839 6 2515 0L1262 0Q889 5 662.50 91.50Q436 178 322.50 388Q209 598 205 975L205 1860Q210 2217 304.50 2433.50Q399 2650 628.50 2756.50Q858 2863 1262 2867L2507 2867Q2868 2867 3087.50 2783.50Q3307 2700 3419.50 2480Q3532 2260 3539 1860L3539 975Q3539 628 3449 401Z"  horiz-adv-x="3736" vert-adv-y="4096"  />

      
      <glyph glyph-name="uni52" unicode="&#x52;" d="M557 2552L557 1454L2400 1454Q2696 1454 2851 1598Q3006 1742 3006 2077Q3006 2285 2847 2418.50Q2688 2552 2421 2552L557 2552M557 1167L557-4L262-4L262 2839L2310 2839Q2657 2839 2878.50 2736.50Q3100 2634 3200.50 2450.50Q3301 2267 3301 2023Q3301 1822 3245.50 1692Q3190 1562 3108 1487.50Q3026 1413 2900 1339Q3051 1306 3153.50 1135Q3256 964 3256 664L3256 0L2961 0L2961 696Q2961 957 2855 1062Q2749 1167 2515 1167L557 1167Z"  horiz-adv-x="3523" vert-adv-y="4096"  />

      
      <glyph glyph-name="uni53" unicode="&#x53;" d="M221 2040Q221 2325 318.50 2502Q416 2679 619.50 2761Q823 2843 1147 2843L2580 2843Q3056 2843 3301.50 2642.50Q3547 2442 3547 2040L3252 2040Q3247 2207 3178.50 2321Q3110 2435 2948.50 2495.50Q2787 2556 2519 2556L1151 2556Q894 2556 755.50 2500Q617 2444 566.50 2333.50Q516 2223 516 2040Q516 1875 572 1783Q628 1691 786 1648.50Q944 1606 1245 1606L2515 1606Q2886 1606 3119 1528.50Q3352 1451 3462 1287Q3572 1123 3572 860L3572 803Q3560 504 3464 328.50Q3368 153 3168.50 76.50Q2969 0 2638 0L1171 0Q885 0 677.50 89.50Q470 179 358 361.50Q246 544 246 811L541 811Q546 642 612.50 527.50Q679 413 840.50 350Q1002 287 1270 287L2613 287Q2951 287 3114 412.50Q3277 538 3277 811Q3277 998 3216.50 1107Q3156 1216 3008 1267.50Q2860 1319 2593 1319L1163 1319Q883 1319 696.50 1365Q510 1411 407 1500Q304 1589 262.50 1720Q221 1851 221 2040Z"  horiz-adv-x="3777" vert-adv-y="4096"  />

      
      <glyph glyph-name="uni54" unicode="&#x54;" d="M90 2843L3154 2843L3154 2556L1765 2556L1765 0L1470 0L1470 2556L90 2556L90 2843Z"  horiz-adv-x="3244" vert-adv-y="4096"  />

      
      <glyph glyph-name="uni55" unicode="&#x55;" d="M246 2843L541 2843L541 860Q541 661 607.50 537.50Q674 414 839.50 352.50Q1005 291 1303 287L2552 287Q2811 291 2969 357Q3127 423 3198 551.50Q3269 680 3269 877L3269 2843L3564 2843L3564 983Q3564 591 3454.50 378.50Q3345 166 3129 85.50Q2913 5 2548 0L1303 0Q926 5 698 91.50Q470 178 358 389Q246 600 246 975L246 2843Z"  horiz-adv-x="3777" vert-adv-y="4096"  />

      
      <glyph glyph-name="uni56" unicode="&#x56;" d="M3056 2843L1745 319L1683 319L373 2843L29 2843L1552 0L1868 0L3400 2843L3056 2843Z"  horiz-adv-x="3449" vert-adv-y="4096"  />

      
      <glyph glyph-name="uni57" unicode="&#x57;" d="M2425 2843L1434 303L1368 303L360 2843L33 2843L1196 0L1614 0L2589 2515L3572 0L3990 0L5153 2843L4825 2843L3817 303L3752 303L2761 2843L2425 2843Z"  horiz-adv-x="5243" vert-adv-y="4096"  />

      
      <glyph glyph-name="uni58" unicode="&#x58;" d="M2892 2843L1696 1638L500 2843L127 2843L1442 1507L-66 0L328 0L1696 1368L3064 0L3457 0L1950 1507L3285 2843L2892 2843Z"  horiz-adv-x="3514" vert-adv-y="4096"  />

      
      <glyph glyph-name="uni59" unicode="&#x59;" d="M2896 2847L1642 1593L389 2847L0 2847L1483 1360L1483 0L1802 0L1802 1360L3285 2847L2896 2847Z"  horiz-adv-x="3293" vert-adv-y="4096"  />

      
      <glyph glyph-name="uni5a" unicode="&#x5a;" d="M197 2843L2970 2843L2970 2621L668 287L3031 287L3031 0L197 0L197 229L2515 2556L197 2556L197 2843Z"  horiz-adv-x="3244" vert-adv-y="4096"  />

      
      <glyph glyph-name="uni5b" unicode="&#x5b;" d="M262 3121L836 3121L836 2966L541 2966L541-303L856-303L856-459L262-459L262 3121Z"  horiz-adv-x="1073" vert-adv-y="4096"  />

      
      <glyph glyph-name="uni5c" unicode="&#x5c;" d="M57 2982L377 2982L1286-369L975-369L57 2982Z"  horiz-adv-x="1294" vert-adv-y="4096"  />

      
      <glyph glyph-name="uni5d" unicode="&#x5d;" d="M795 3121L795-459L201-459L201-299L516-299L516 2966L221 2966L221 3121L795 3121Z"  horiz-adv-x="1073" vert-adv-y="4096"  />

      
      <glyph glyph-name="uni5e" unicode="&#x5e;" d="M115 2163L713 2736L877 2736L1475 2163L1343 2163L795 2564L246 2163L115 2163Z"  horiz-adv-x="1606" vert-adv-y="4096"  />

      
      <glyph glyph-name="uni5f" unicode="&#x5f;" d="M8-8L1597-8L1597-164L8-164L8-8Z"  horiz-adv-x="1606" vert-adv-y="4096"  />

      
      <glyph glyph-name="uni60" unicode="&#x60;" d="M319 2982L950 2425L836 2327L147 2785L319 2982Z"  horiz-adv-x="1155" vert-adv-y="4096"  />

      
      <glyph glyph-name="uni61" unicode="&#x61;" d="M197 762Q197 981 353 1109Q509 1237 827 1237L2007 1237Q2217 1237 2292.50 1177Q2368 1117 2376 1077L2376 1356Q2376 1542 2255 1660Q2134 1778 1884 1778L1102 1778Q788 1778 695 1680Q602 1582 602 1516L602 1442L299 1442L299 1516L291 1516Q291 1578 336.50 1693.50Q382 1809 546 1916Q710 2023 1028 2023L1917 2023Q2679 2023 2679 1311L2679 0L2384 0L2384 164Q2355 123 2265.50 61.50Q2176 0 2023 0L877 0Q197 0 197 516L197 762M934 991Q672 991 582 920.50Q492 850 492 696L492 549Q492 403 589 328.50Q686 254 934 254L1933 254Q2166 254 2271 343Q2376 432 2376 623Q2376 991 1933 991L934 991Z"  horiz-adv-x="2912" vert-adv-y="4096"  />

      
      <glyph glyph-name="uni62" unicode="&#x62;" d="M1098-8Q828-8 687.50 78Q547 164 508 221L508 0L213 0L213 2843L508 2843L508 1802Q543 1860 678.50 1946Q814 2032 1098 2032L1892 2032Q2109 2032 2270 1976.50Q2431 1921 2536.50 1817.50Q2642 1714 2696 1568Q2750 1422 2753 1237L2753 795Q2747 410 2535.50 204Q2324-2 1892-8L1098-8M500 795Q500 549 663 393.50Q826 238 1139 238L1786 238Q2139 238 2298.50 373Q2458 508 2458 795L2458 1237Q2458 1786 1786 1786L1130 1786Q818 1786 659 1634.50Q500 1483 500 1237Q500 1189 496 1117Q492 1045 492 1016Q492 986 496 915Q500 844 500 795Z"  horiz-adv-x="2982" vert-adv-y="4096"  />

      
      <glyph glyph-name="uni63" unicode="&#x63;" d="M1888 238L1896 238Q2125 238 2250.50 316.50Q2376 395 2417 493Q2458 591 2458 672L2458 713L2753 713L2753 680Q2753 460 2583.50 226Q2414-8 1901-8L991-8Q580-8 376 191.50Q172 391 172 745L172 1253Q172 1475 265.50 1652Q359 1829 548.50 1930.50Q738 2032 1016 2032L1901 2032L1909 2023Q2258 2023 2447 1895.50Q2636 1768 2694.50 1617Q2753 1466 2753 1352L2753 1319L2458 1319L2458 1343Q2458 1490 2345 1638Q2232 1786 1901 1786L1016 1786Q753 1786 610 1652.50Q467 1519 467 1253L467 745Q467 510 618.50 374Q770 238 995 238L1888 238Z"  horiz-adv-x="2933" vert-adv-y="4096"  />

      
      <glyph glyph-name="uni64" unicode="&#x64;" d="M1851-8L1057-8Q638-2 420.50 198Q203 398 197 795Q197 856 192.50 921Q188 986 188 1016Q188 1045 192.50 1111Q197 1177 197 1237Q202 1474 295 1652Q388 1830 580 1931Q772 2032 1057 2032L1851 2032Q2130 2032 2267 1946Q2404 1860 2441 1802L2441 2843L2736 2843L2736 0L2441 0L2441 197Q2386 146 2234 69Q2082-8 1851-8M2449 795L2449 1237Q2443 1484 2282.50 1635Q2122 1786 1810 1786L1155 1786Q808 1786 650 1647.50Q492 1509 492 1237L492 795Q492 512 654 379Q816 246 1155 246L1810 246Q2122 246 2282.50 397Q2443 548 2449 795Z"  horiz-adv-x="2982" vert-adv-y="4096"  />

      
      <glyph glyph-name="uni65" unicode="&#x65;" d="M2490 1237Q2490 1407 2425 1530.50Q2360 1654 2237 1720Q2114 1786 1946 1786L1020 1786Q867 1786 749 1718Q631 1650 565.50 1526Q500 1402 500 1237L2490 1237M2064-8L1073-8Q635-8 420 184.50Q205 377 205 754L205 1286Q205 1476 306.50 1648Q408 1820 604 1926Q800 2032 1065 2032L1917 2032Q2333 2032 2559 1827Q2785 1622 2785 1319L2785 991L500 991L500 795Q500 238 1061 238L2023 238Q2255 238 2372.50 344.50Q2490 451 2490 606L2490 647L2785 647L2785 606Q2785 462 2716 321.50Q2647 181 2485 86.50Q2323-8 2064-8Z"  horiz-adv-x="2982" vert-adv-y="4096"  />

      
      <glyph glyph-name="uni66" unicode="&#x66;" d="M328 1794L74 1794L74 2040L328 2040L328 2089Q328 2843 1057 2843L1483 2843L1483 2589L1057 2589Q838 2589 730.50 2467.50Q623 2346 623 2081L623 2040L1491 2040L1491 1794L623 1794L623 0L328 0L328 1794Z"  horiz-adv-x="1606" vert-adv-y="4096"  />

      
      <glyph glyph-name="uni67" unicode="&#x67;" d="M229 745Q229 804 225 917Q221 1030 221 1081Q221 1104 225 1168Q229 1232 229 1262Q243 2023 1057 2023L1909 2023Q2187 2023 2321 1940Q2455 1857 2490 1802L2490 2023L2785 2023L2785-213Q2785-868 1925-868L1106-868Q870-868 694-801.50Q518-735 423-613Q328-491 328-328L647-328Q647-449 770.50-536Q894-623 1135-623L1905-623Q2094-623 2226.50-569.50Q2359-516 2424.50-427.50Q2490-339 2490-238L2490 238Q2470 189 2401.50 133.50Q2333 78 2212.50 39Q2092 0 1925 0L1081 0Q794 8 607 89.50Q420 171 326.50 333.50Q233 496 229 745M2499 795L2499 1237Q2493 1483 2337 1630.50Q2181 1778 1868 1778L1196 1778Q835 1778 679.50 1649Q524 1520 524 1237L524 795Q524 509 689.50 377.50Q855 246 1196 246L1868 246Q2175 246 2334 398Q2493 550 2499 795Z"  horiz-adv-x="3023" vert-adv-y="4096"  />

      
      <glyph glyph-name="uni68" unicode="&#x68;" d="M1106 2023L1892 2023Q2344 2023 2556.50 1803.50Q2769 1584 2769 1229L2769 0L2474 0L2474 1229Q2474 1492 2315 1635Q2156 1778 1892 1778L1106 1778Q838 1778 677 1635Q516 1492 516 1229L516 0L221 0L221 2843L516 2843L516 1737Q523 1749 549.50 1793Q576 1837 638.50 1890.50Q701 1944 817.50 1983.50Q934 2023 1106 2023Z"  horiz-adv-x="2982" vert-adv-y="4096"  />

      
      <glyph glyph-name="uni69" unicode="&#x69;" d="M319 0L319 2023L614 2023L614 0L319 0M319 2843L614 2843L614 2548L319 2548L319 2843Z"  horiz-adv-x="934" vert-adv-y="4096"  />

      
      <glyph glyph-name="uni6a" unicode="&#x6a;" d="M451 2019L745 2023L745-328Q745-653 525-760.50Q305-868 98-868L74-868L74-573L139-573Q258-573 354.50-500.50Q451-428 451-229L451 2019M451 2843L745 2843L745 2548L451 2548L451 2843Z"  horiz-adv-x="1155" vert-adv-y="4096"  />

      
      <glyph glyph-name="uni6b" unicode="&#x6b;" d="M238 0L238 2843L532 2843L532 1257L868 1257L1917 2019L2388 2019L1110 1118L2494-4L2068-4L848 1004L532 1004L532 0L238 0Z"  horiz-adv-x="2540" vert-adv-y="4096"  />

      
      <glyph glyph-name="uni6c" unicode="&#x6c;" d="M369 0L369 2843L664 2843L664 0L369 0Z"  horiz-adv-x="983" vert-adv-y="4096"  />

      
      <glyph glyph-name="uni6d" unicode="&#x6d;" d="M492 1245L492 0L197 0L197 2023L500 2023L500 1712Q529 1790 670 1906.50Q811 2023 1139 2023L1540 2023Q1783 2023 1939.50 1967Q2096 1911 2172 1837.50Q2248 1764 2279 1702Q2310 1640 2318 1622Q2323 1636 2350 1698.50Q2377 1761 2451.50 1835.50Q2526 1910 2681.50 1966.50Q2837 2023 3080 2023L3539 2023Q3815 2023 4016 1927.50Q4217 1832 4320.50 1671.50Q4424 1511 4424 1319L4424 0L4129 0L4129 1262Q4129 1509 3956.50 1643.50Q3784 1778 3465 1778L3162 1778Q2939 1778 2781.50 1718.50Q2624 1659 2541 1534Q2458 1409 2458 1221L2458 0L2163 0L2163 1229Q2163 1407 2079 1531Q1995 1655 1847 1716.50Q1699 1778 1507 1778L1188 1778Q951 1778 793.50 1698Q636 1618 564 1495.50Q492 1373 492 1245Z"  horiz-adv-x="4616" vert-adv-y="4096"  />

      
      <glyph glyph-name="uni6e" unicode="&#x6e;" d="M1122 2023L1901 2023Q2218 2023 2415.50 1910Q2613 1797 2699 1609Q2785 1421 2785 1180L2785 4L2490 4L2490 1221Q2490 1482 2329.50 1630Q2169 1778 1901 1778L1122 1778Q859 1778 695.50 1628.50Q532 1479 532 1221L532 4L238 4L238 2023L532 2023L532 1696Q553 1778 679 1900.50Q805 2023 1122 2023Z"  horiz-adv-x="3023" vert-adv-y="4096"  />

      
      <glyph glyph-name="uni6f" unicode="&#x6f;" d="M180 1237Q186 1605 397.50 1818.50Q609 2032 1065 2032L1876 2032Q2193 2032 2390 1925Q2587 1818 2671.50 1640.50Q2756 1463 2761 1237L2761 795Q2756 568 2668.50 388Q2581 208 2383.50 100Q2186-8 1876-8L1065-8Q192-8 180 795Q180 844 176 915Q172 986 172 1016Q172 1045 176 1117Q180 1189 180 1237M475 795Q475 238 1085 238L1855 238Q2466 238 2466 795L2466 1237Q2466 1502 2308.50 1644Q2151 1786 1855 1786L1085 1786Q881 1786 748 1730Q615 1674 547 1552.50Q479 1431 475 1237L475 795Z"  horiz-adv-x="2933" vert-adv-y="4096"  />

      
      <glyph glyph-name="uni70" unicode="&#x70;" d="M1098 2023L1892 2023Q2198 2023 2389 1917.50Q2580 1812 2663.50 1634.50Q2747 1457 2753 1229L2753 786Q2747 546 2656.50 368Q2566 190 2375.50 91Q2185-8 1892-8L1098-8Q816-8 679.50 78Q543 164 508 221L508-827L213-827L213 2023L508 2023L508 1802Q543 1857 674 1940Q805 2023 1073 2023L1098 2023M500 1229Q500 1180 496 1106Q492 1032 492 1008Q492 983 496 910Q500 837 500 786Q500 545 658 391.50Q816 238 1126 238L1786 238Q2123 238 2290.50 368Q2458 498 2458 786L2458 1229Q2458 1778 1786 1778L1130 1778Q818 1778 659 1626.50Q500 1475 500 1229Z"  horiz-adv-x="2933" vert-adv-y="4096"  />

      
      <glyph glyph-name="uni71" unicode="&#x71;" d="M1876 2023L1892 2023Q2073 2023 2198.50 1974.50Q2324 1926 2385.50 1876Q2447 1826 2466 1802L2466 2023L2761 2023L2761-827L2466-827L2466 197Q2431 146 2294.50 69Q2158-8 1876-8L1081-8Q798-8 607 82.50Q416 173 321 351Q226 529 221 791L221 1233Q227 1606 442.50 1814.50Q658 2023 1081 2023L1876 2023M2474 1229Q2468 1476 2309.50 1627Q2151 1778 1843 1778L1188 1778Q849 1778 682.50 1651.50Q516 1525 516 1229L516 786Q516 238 1188 238L1843 238Q2149 238 2308.50 391.50Q2468 545 2474 786L2474 1229Z"  horiz-adv-x="2982" vert-adv-y="4096"  />

      
      <glyph glyph-name="uni72" unicode="&#x72;" d="M541 0L246 0L246 2023L541 2023L541 1761Q564 1827 681.50 1925Q799 2023 1081 2023L1655 2023Q1931 2023 2107 1937Q2283 1851 2370 1725.50Q2457 1600 2486 1480.50Q2515 1361 2515 1262L2515 1204L2220 1204L2220 1229Q2220 1408 2100.50 1593Q1981 1778 1626 1778L1102 1778Q944 1778 816 1711.50Q688 1645 614.50 1535Q541 1425 541 1303L541 0Z"  horiz-adv-x="2789" vert-adv-y="4096"  />

      
      <glyph glyph-name="uni73" unicode="&#x73;" d="M492 647L492 532Q492 438 525.50 376Q559 314 663 276Q767 238 971 238L2011 238Q2226 238 2342 313Q2458 388 2458 524L2458 614Q2458 750 2358 825.50Q2258 901 2073 901L893 901Q205 901 205 1425L205 1507Q205 1653 283.50 1771.50Q362 1890 524 1961Q686 2032 926 2032L1884 2032Q2761 2032 2761 1532L2761 1393L2466 1393L2466 1524Q2466 1619 2352.50 1702.50Q2239 1786 1892 1786L877 1786Q691 1786 591.50 1714Q492 1642 492 1507L492 1425Q492 1147 877 1147L2056 1147Q2753 1147 2753 614L2753 524Q2753 382 2673.50 261Q2594 140 2429 66Q2264-8 2023-8L901-8Q197-8 197 500L197 647L492 647Z"  horiz-adv-x="2982" vert-adv-y="4096"  />

      
      <glyph glyph-name="uni74" unicode="&#x74;" d="M606 721L606 1786L2134 1786L2134 2032L606 2032L606 2425L311 2425L311 2032L57 2032L57 1786L311 1786L311 766Q311 386 503 193Q695 0 1040 0L1462 0Q1977 0 2149.50 238Q2322 476 2322 762L2322 819L2028 819L2028 795Q2028 641 1990 523.50Q1952 406 1821.50 326Q1691 246 1434 246L1040 246Q846 246 726 365.50Q606 485 606 721Z"  horiz-adv-x="2400" vert-adv-y="4096"  />

      
      <glyph glyph-name="uni75" unicode="&#x75;" d="M1901-8L1106-8Q221-8 221 795L221 2023L516 2023L516 770Q516 510 672 374Q828 238 1106 238L1901 238Q2142 238 2316 372.50Q2490 507 2490 745L2490 2023L2785 2023L2785 0L2499 0L2499 246Q2452 183 2303.50 87.50Q2155-8 1901-8Z"  horiz-adv-x="2982" vert-adv-y="4096"  />

      
      <glyph glyph-name="uni76" unicode="&#x76;" d="M2245 2023L1327 319L1266 319L348 2023L20 2023L1139 0L1454 0L2572 2023L2245 2023Z"  horiz-adv-x="2580" vert-adv-y="4096"  />

      
      <glyph glyph-name="uni77" unicode="&#x77;" d="M250 2015L926 319L995 319L1655 2015L2015 2015L2675 319L2744 319L3420 2015L3736 2015L2912 0L2527 0L1835 1782L1143 0L758 0L-66 2015L250 2015Z"  horiz-adv-x="3715" vert-adv-y="4096"  />

      
      <glyph glyph-name="uni78" unicode="&#x78;" d="M180 2023L541 2023L1303 1278L2048 2023L2408 2023L1475 1098L2572 0L2204 0L1294 909L377 0L25 0L1114 1098L180 2023Z"  horiz-adv-x="2609" vert-adv-y="4096"  />

      
      <glyph glyph-name="uni79" unicode="&#x79;" d="M8 2023L315 2023L1257 287L1315 287L2060 2023L2367 2023L1352-266Q1253-490 1157-616Q1061-742 910-805Q759-868 516-868L418-868L418-623L590-623Q752-623 854.50-551.50Q957-480 1023.50-360Q1090-240 1192 0L1118 0L8 2023Z"  horiz-adv-x="2396" vert-adv-y="4096"  />

      
      <glyph glyph-name="uni7a" unicode="&#x7a;" d="M180 2023L2322 2023L2322 1802L610 246L2347 246L2347 0L164 0L164 229L1884 1778L180 1778L180 2023Z"  horiz-adv-x="2580" vert-adv-y="4096"  />

      
      <glyph glyph-name="uni7b" unicode="&#x7b;" d="M1016 2851Q807 2851 715 2752.50Q623 2654 623 2458L623 1663Q623 1494 531 1394.50Q439 1295 377 1262Q439 1217 531 1108Q623 999 623 860L623 66Q623-133 716-226Q809-319 1016-319L1016-541L991-541Q704-541 548.50-387Q393-233 393 66L393 860Q393 1006 295 1112.50Q197 1219 131 1262Q197 1303 295 1408.50Q393 1514 393 1663L393 2458Q393 3080 1016 3080L1016 2851Z"  horiz-adv-x="1204" vert-adv-y="4096"  />

      
      <glyph glyph-name="uni7c" unicode="&#x7c;" d="M238 3031L467 3031L467-549L238-549L238 3031Z"  horiz-adv-x="709" vert-adv-y="4096"  />

      
      <glyph glyph-name="uni7d" unicode="&#x7d;" d="M197 2851Q188 2851 188 3015Q188 3035 191.50 3053.50Q195 3072 197 3080Q811 3080 811 2458L811 1663Q811 1516 912.50 1409.50Q1014 1303 1081 1262Q1014 1219 912.50 1111.50Q811 1004 811 860L811 66Q811-232 653.50-386.50Q496-541 213-541L197-541Q188-541 188-426Q188-396 191.50-364.50Q195-333 197-319Q397-319 489.50-226Q582-133 582 66L582 860Q582 998 674 1107.50Q766 1217 827 1262Q766 1295 674 1395Q582 1495 582 1663L582 2458Q582 2655 493 2753Q404 2851 197 2851Z"  horiz-adv-x="1204" vert-adv-y="4096"  />

      
      <glyph glyph-name="uni7e" unicode="&#x7e;" d="M614 1417L336 1417Q355 1522 479 1678.50Q603 1835 926 1835Q1038 1835 1111.50 1808Q1185 1781 1261 1727Q1337 1673 1387.50 1649Q1438 1625 1524 1622L1532 1614Q1680 1614 1731 1691Q1782 1768 1786 1819L2056 1819Q2050 1772 2008.50 1677Q1967 1582 1842 1487.50Q1717 1393 1491 1393L1483 1401Q1348 1407 1258 1459Q1168 1511 1083.50 1560.50Q999 1610 868 1614L844 1614Q720 1614 671 1540Q622 1466 614 1417Z"  horiz-adv-x="2269" vert-adv-y="4096"  />

      
      <glyph glyph-name="uni201A" unicode="&#x201A;" d="M246 0L246 319L565 319L565-213Q565-348 451-434L295-434Q410-347 410-213L410 0L246 0Z"  horiz-adv-x="774" vert-adv-y="4096"  />

      
      <glyph glyph-name="uni201E" unicode="&#x201E;" d="M246 0L246 319L565 319L565-213Q565-348 451-434L295-434Q410-347 410-213L410 0L246 0M901 0L901 319L1221 319L1221-213Q1221-358 1106-434L950-434Q1073-353 1073-213L1073 0L901 0Z"  horiz-adv-x="1466" vert-adv-y="4096"  />

      
      <glyph glyph-name="uni2026" unicode="&#x2026;" d="M246 0L246 319L565 319L565 0L246 0M1368 0L1368 319L1688 319L1688 0L1368 0M807 0L807 319L1126 319L1126 0L807 0Z"  horiz-adv-x="1909" vert-adv-y="4096"  />

      
      <glyph glyph-name="uni2021" unicode="&#x2021;" d="M2802 2204Q2802 2317 2749.50 2400.50Q2697 2484 2597.50 2528Q2498 2572 2359 2572L1098 2572Q875 2572 753 2455.50Q631 2339 631 2138Q631 2134 635 2122Q639 2110 639 2105Q645 1948 700 1856Q755 1764 833 1641Q911 1518 942 1360L2720 1360L2720 1065L975 1065Q950 833 860 655Q795 525 703.50 428.50Q612 332 565 295L3039 295L3039 0L180 0L180 295Q240 336 352 435.50Q464 535 541 664Q688 898 688 1057L688 1065L221 1065L221 1360Q266 1358 357 1355Q448 1352 524 1352Q561 1352 593 1355Q625 1358 639 1360Q613 1476 550 1568.50Q487 1661 439 1728.50Q391 1796 357 1900Q323 2004 319 2187Q319 2364 414 2514.50Q509 2665 685.50 2754Q862 2843 1098 2843L2359 2843Q3046 2843 3080 2204L2802 2204Z"  horiz-adv-x="3244" vert-adv-y="4096"  />

      
      <glyph glyph-name="uni2030" unicode="&#x2030;" d="M1855 2195Q1855 2351 1820.50 2435Q1786 2519 1702.50 2554Q1619 2589 1466 2589L856 2589Q691 2589 605.50 2555.50Q520 2522 485.50 2438.50Q451 2355 451 2195L451 1720Q451 1580 489.50 1500.50Q528 1421 615.50 1385Q703 1349 856 1343L1466 1343Q1615 1349 1698 1383Q1781 1417 1818 1495.50Q1855 1574 1855 1720L1855 2195M2114 1696Q2114 1368 1973.50 1237Q1833 1106 1491 1094Q1250 1085 1159 1085Q1077 1085 827 1094Q595 1102 458 1160Q321 1218 259 1346Q197 1474 197 1696L197 2216Q197 2453 254.50 2586.50Q312 2720 448.50 2779.50Q585 2839 827 2839L1491 2839Q1708 2839 1843.50 2781.50Q1979 2724 2046.50 2585.50Q2114 2447 2114 2216L2114 1696M2912 2982L2073-135L1831-135L2671 2982L2912 2982M4547 606Q4547 384 4486.50 254.50Q4426 125 4291 66.50Q4156 8 3928 0L3265 0Q3031 8 2892 66.50Q2753 125 2691.50 254Q2630 383 2630 606L2630 1122Q2630 1358 2688.50 1494.50Q2747 1631 2884.50 1690Q3022 1749 3265 1749L3928 1749Q4141 1749 4277 1690Q4413 1631 4480 1492.50Q4547 1354 4547 1122L4547 606M4297 1102Q4297 1332 4215.50 1415.50Q4134 1499 3903 1499L3293 1499Q3129 1499 3045 1465Q2961 1431 2926.50 1347Q2892 1263 2892 1102L2892 627Q2892 484 2929.50 405.50Q2967 327 3053.50 291.50Q3140 256 3293 250L3903 250Q4124 259 4210.50 336.50Q4297 414 4297 627L4297 1102M6603 606Q6603 384 6542.50 254.50Q6482 125 6347 66.50Q6212 8 5984 0L5321 0Q5089 8 4953.50 66.50Q4818 125 4756 254.50Q4694 384 4686 606L4686 1122Q4694 1360 4752 1495.50Q4810 1631 4944.50 1690Q5079 1749 5321 1749L5984 1749Q6197 1749 6333 1690Q6469 1631 6536 1492.50Q6603 1354 6603 1122L6603 606M6353 1102Q6353 1332 6272 1415.50Q6191 1499 5964 1499L5353 1499Q5188 1499 5102.50 1465Q5017 1431 4982.50 1347Q4948 1263 4948 1102L4948 627Q4948 484 4986 405.50Q5024 327 5111.50 291.50Q5199 256 5353 250L5964 250Q6183 259 6268 336.50Q6353 414 6353 627L6353 1102Z"  horiz-adv-x="6717" vert-adv-y="4096"  />

      
      <glyph glyph-name="uni2039" unicode="&#x2039;" d="M483 1139L1180 451L1040 311L213 1139L1057 1982L1188 1843L483 1139Z"  horiz-adv-x="1397" vert-adv-y="4096"  />

      
      <glyph glyph-name="uni8e" unicode="&#x8e;" d="M524 0L229 0L229 2146Q229 2360 280 2480Q331 2600 418 2695Q582 2859 909 2859L1589 2859Q1780 2859 1945 2770Q2110 2681 2208 2516.50Q2306 2352 2310 2138Q2310 1956 2259.50 1850Q2209 1744 2141 1698.50Q2073 1653 2017.50 1642.50Q1962 1632 1950 1630Q1967 1626 2091.50 1596.50Q2216 1567 2357 1490Q2498 1413 2605 1257Q2712 1101 2712 860Q2712 581 2600 384Q2488 187 2292 89.50Q2096-8 1851-8L1835-8Q1471-8 1292 128.50Q1113 265 1073 410L1327 541Q1345 457 1462.50 368Q1580 279 1810 279Q1816 281 1827.50 284Q1839 287 1843 287Q2417 309 2417 868Q2417 1069 2311 1195.50Q2205 1322 1992.50 1382Q1780 1442 1458 1442L1458 1688Q1658 1693 1775.50 1730.50Q1893 1768 1954 1863.50Q2015 1959 2015 2130Q2015 2256 1962 2354.50Q1909 2453 1811.50 2508.50Q1714 2564 1589 2564L950 2564Q713 2564 623 2474Q524 2361 524 2146L524 0Z"  horiz-adv-x="2843" vert-adv-y="4096"  />

      
      <glyph glyph-name="uni90" unicode="&#x90;" d="M831 623Q603 909 455.50 1188Q308 1467 303 1769Q303 2199 606 2449Q783 2589 1077 2589Q1311 2589 1458 2490Q1547 2427 1596 2403.50Q1645 2380 1704 2380Q1849 2380 1974 2490Q2097 2589 2318 2589Q2584 2589 2769 2454Q2868 2379 2875 2314Q2866 2307 2814.50 2266.50Q2763 2226 2701.50 2154Q2640 2082 2594 1977.50Q2548 1873 2548 1753Q2548 1721 2556 1663Q2595 1427 2737 1317Q2879 1207 2966 1180Q2856 887 2626 618Q2408 360 2154 360Q1970 360 1855 500Q1804 565 1696 565Q1597 565 1532 500Q1417 373 1262 373Q1034 373 831 623M1712 2544Q1642 2544 1642 2613Q1642 2733 1720.50 2859Q1799 2985 1918 3068.50Q2037 3152 2146 3158Q2175 3158 2181 3145Q2187 3132 2187 3092Q2175 2974 2104.50 2855Q2034 2736 1928 2651Q1822 2566 1712 2544Z"  horiz-adv-x="3211" vert-adv-y="4096"  />

      
      <glyph glyph-name="uni2018" unicode="&#x2018;" d="M549 2540L549 2220L229 2220L229 2744Q229 2893 344 2966L500 2966Q385 2879 385 2744L385 2540L549 2540Z"  horiz-adv-x="762" vert-adv-y="4096"  />

      
      <glyph glyph-name="uni2019" unicode="&#x2019;" d="M229 2523L229 2843L549 2843L549 2310Q549 2174 434 2089L279 2089Q401 2181 401 2310L401 2523L229 2523Z"  horiz-adv-x="762" vert-adv-y="4096"  />

      
      <glyph glyph-name="uni201C" unicode="&#x201C;" d="M1221 2556L1221 2236L901 2236L901 2761Q901 2905 1016 2990L1163 2990Q1049 2892 1049 2761L1049 2556L1221 2556M557 2556L557 2236L238 2236L238 2761Q238 2904 352 2990L508 2990Q393 2905 393 2761L393 2556L557 2556Z"  horiz-adv-x="1425" vert-adv-y="4096"  />

      
      <glyph glyph-name="uni201D" unicode="&#x201D;" d="M246 2523L246 2843L565 2843L565 2310Q565 2175 451 2089L295 2089Q410 2176 410 2310L410 2523L246 2523M901 2523L901 2843L1221 2843L1221 2310Q1221 2165 1106 2089L950 2089Q1073 2170 1073 2310L1073 2523L901 2523Z"  horiz-adv-x="1466" vert-adv-y="4096"  />

      
      <glyph glyph-name="uni2022" unicode="&#x2022;" d="M983 1810Q1193 1810 1343.50 1718Q1494 1626 1570.50 1476Q1647 1326 1647 1155Q1647 985 1570 833.50Q1493 682 1341.50 587Q1190 492 983 492Q764 492 606 583Q448 674 367.50 821.50Q287 969 287 1139Q287 1308 369 1462Q451 1616 609.50 1713Q768 1810 983 1810Z"  horiz-adv-x="1958" vert-adv-y="4096"  />

      
      <glyph glyph-name="uni2013" unicode="&#x2013;" d="M221 1343L2097 1343L2097 1049L221 1049L221 1343Z"  horiz-adv-x="2359" vert-adv-y="4096"  />

      
      <glyph glyph-name="uni2014" unicode="&#x2014;" d="M385 1343L3506 1343L3506 1049L385 1049L385 1343Z"  horiz-adv-x="3916" vert-adv-y="4096"  />

      
      <glyph glyph-name="uni2122" unicode="&#x2122;" d="M205 3150L713 3150L713 3097L487 3097L487 2433L434 2433L434 3097L205 3097L205 3150M692 2441L852 3158L1077 2552L1311 3158L1462 2441L1405 2441L1298 2978L1077 2404L860 2978L745 2441L692 2441Z"  horiz-adv-x="1638" vert-adv-y="4096"  />

      
      <glyph glyph-name="uni203A" unicode="&#x203A;" d="M913 1139L201 1851L340 1982L1184 1139L356 319L225 451L913 1139Z"  horiz-adv-x="1389" vert-adv-y="4096"  />

      
      <glyph glyph-name="unia0" unicode="&#xa0;" d="M270 2470Q421 2339 791 2339Q1163 2339 1335 2470Q1375 2503 1409 2503Q1462 2503 1462 2454Q1462 2439 1450 2421Q1358 2319 1181 2265.50Q1004 2212 799 2212Q587 2212 410.50 2266.50Q234 2321 152 2421Q143 2429 143 2454Q143 2503 197 2503Q231 2503 270 2470Z"  horiz-adv-x="1155" vert-adv-y="4096"  />

      
      <glyph glyph-name="unia1" unicode="&#xa1;" d="M393 1573L688 1573L688-590L393-590L393 1573M688 2253L688 1933L393 1933L393 2253L688 2253Z"  horiz-adv-x="1073" vert-adv-y="4096"  />

      
      <glyph glyph-name="unia2" unicode="&#xa2;" d="M1769 582L2040 582Q2404 582 2517 748.50Q2630 915 2630 1032L2630 1040L2925 1040Q2924 962 2873 802.50Q2822 643 2625.50 485.50Q2429 328 2040 328L1769 328L1769 98L1475 98L1475 328L1163 328Q904 328 717.50 445Q531 562 437.50 736Q344 910 344 1073L344 1565Q344 1795 441.50 1975.50Q539 2156 730 2257.50Q921 2359 1188 2359L1475 2359L1475 2621L1769 2621L1769 2359L2040 2359L2048 2351Q2427 2351 2622 2200.50Q2817 2050 2871 1890Q2925 1730 2925 1647L2630 1647Q2630 1703 2595.50 1807Q2561 1911 2429.50 2012.50Q2298 2114 2040 2114L1769 2114L1769 582M1475 2114L1188 2114Q941 2114 790 1971Q639 1828 639 1565L639 1073Q639 860 804.50 721Q970 582 1163 582L1475 582L1475 2114Z"  horiz-adv-x="3244" vert-adv-y="4096"  />

      
      <glyph glyph-name="unia3" unicode="&#xa3;" d="M246 0L246 319L565 319L565-213Q565-348 451-434L295-434Q410-347 410-213L410 0L246 0M901 0L901 319L1221 319L1221-213Q1221-358 1106-434L950-434Q1073-353 1073-213L1073 0L901 0Z"  horiz-adv-x="1466" vert-adv-y="4096"  />

      
      <glyph glyph-name="unia5" unicode="&#xa5;" d="M90 2843L500 2843L1729 1614L2957 2843L3367 2843L1892 1352L2572 1352L2572 1122L1892 1122L1892 1016L2572 1016L2572 786L1892 786L1892 0L1573 0L1573 786L901 786L901 1016L1573 1016L1573 1122L901 1122L901 1352L1581 1352L90 2843Z"  horiz-adv-x="3465" vert-adv-y="4096"  />

      
      <glyph glyph-name="unia6" unicode="&#xa6;" d="M238 3031L467 3031L467-549L238-549L238 3031Z"  horiz-adv-x="713" vert-adv-y="4096"  />

      
      <glyph glyph-name="unia7" unicode="&#xa7;" d="M2261 852Q2517 852 2622.50 947Q2728 1042 2728 1221L2728 1393Q2728 1527 2641 1623.50Q2554 1720 2417 1720L729 1720Q360 1720 360 1311L360 1163Q360 1018 437.50 935Q515 852 664 852L2261 852M2966 1180Q2966 983 2877 842.50Q2788 702 2613 672Q2650 652 2705.50 575Q2761 498 2761 344L2761 205Q2761 59 2684-57Q2607-173 2467.50-238Q2328-303 2146-303L909-303Q720-303 580-222.50Q440-142 367.50-5Q295 132 295 303L295 344L590 344L590 303Q590 138 674.50 40.50Q759-57 926-57L2195-57Q2507-57 2507 279Q2507 416 2421 507Q2335 598 2195 598L647 598Q415 598 260.50 743.50Q106 889 106 1098L106 1327Q106 1559 211.50 1706Q317 1853 426 1884Q393 1890 344 1952Q295 2014 295 2187L295 2327Q295 2565 451 2708Q607 2851 909 2851L2105 2851Q2329 2851 2474 2772.50Q2619 2694 2686 2559Q2753 2424 2753 2253L2753 2212L2458 2212L2458 2253Q2458 2433 2378.50 2519Q2299 2605 2089 2605L877 2605Q549 2605 549 2286Q549 1966 852 1966L2376 1966Q2546 1966 2680.50 1901Q2815 1836 2890.50 1721.50Q2966 1607 2966 1466L2966 1180Z"  horiz-adv-x="3113" vert-adv-y="4096"  />

      
      <glyph glyph-name="unia8" unicode="&#xa8;" d="M246 0L246 2843L2769 2843L2769 2548L541 2548L541 1614L2703 1614L2703 1319L541 1319L541 295L2769 295L2769 0L246 0M1081 3310L1343 3310L1343 3047L1081 3047L1081 3310M1704 3310L1966 3310L1966 3047L1704 3047L1704 3310Z"  horiz-adv-x="3023" vert-adv-y="4096"  />

      
      <glyph glyph-name="unia9" unicode="&#xa9;" d="M1769 2220Q1736 2267 1633 2337.50Q1530 2408 1352 2408Q1199 2408 1087.50 2344Q976 2280 918 2176Q860 2072 860 1958Q860 1779 993 1643Q1126 1507 1352 1507Q1484 1507 1578.50 1553Q1673 1599 1721 1653.50Q1769 1708 1769 1720L1769 1589Q1736 1548 1633 1486.50Q1530 1425 1352 1425Q1170 1425 1037.50 1501Q905 1577 837.50 1700Q770 1823 770 1958Q770 2093 837.50 2218.50Q905 2344 1037.50 2421.50Q1170 2499 1352 2499Q1474 2499 1567.50 2461.50Q1661 2424 1715 2381Q1769 2338 1769 2327L1769 2220M1352 836Q1071 836 848 929.50Q625 1023 475.50 1183.50Q326 1344 249 1547Q172 1750 172 1966Q172 2258 308.50 2521.50Q445 2785 712.50 2949Q980 3113 1352 3113Q1722 3113 1986 2951.50Q2250 2790 2382.50 2529.50Q2515 2269 2515 1974Q2515 1680 2382.50 1419.50Q2250 1159 1986 997.50Q1722 836 1352 836M1352 3023Q1091 3023 885.50 2935.50Q680 2848 541.50 2697Q403 2546 332.50 2359Q262 2172 262 1974Q262 1776 332 1590Q402 1404 541 1252.50Q680 1101 885.50 1013.50Q1091 926 1352 926L1360 926Q1700 926 1943.50 1073.50Q2187 1221 2310 1460Q2433 1699 2433 1966Q2433 2236 2309.50 2479.50Q2186 2723 1940 2873Q1694 3023 1352 3023Z"  horiz-adv-x="2671" vert-adv-y="4096"  />

      
      <glyph glyph-name="uniaa" unicode="&#xaa;" d="M2466-8Q2835-8 3064 82.50Q3293 173 3395.50 352.50Q3498 532 3498 803L3203 803Q3203 528 3036 403.50Q2869 279 2470 279L1225 279Q1007 279 864.50 315Q722 351 634 432.50Q546 514 506.50 653Q467 792 467 1008L467 1323L2925 1323L2925 1610L467 1610L467 1835Q467 2129 536 2291.50Q605 2454 767.50 2521.50Q930 2589 1225 2589L2470 2589Q2741 2589 2904.50 2526Q3068 2463 3135.50 2347Q3203 2231 3203 2064L3498 2064Q3498 2875 2466 2875L1221 2875Q841 2875 612 2770.50Q383 2666 280 2439.50Q177 2213 172 1835L172 1008Q177 630 280 410Q383 190 610 91Q837-8 1221-8L2466-8Z"  horiz-adv-x="3736" vert-adv-y="4096"  />

      
      <glyph glyph-name="uniab" unicode="&#xab;" d="M483 1139L1180 451L1040 311L213 1139L1057 1982L1188 1843L483 1139M1221 1139L1917 451L1778 311L950 1139L1794 1982L1925 1843L1221 1139Z"  horiz-adv-x="2269" vert-adv-y="4096"  />

      
      <glyph glyph-name="uniac" unicode="&#xac;" d="M786 590Q600 590 533.50 536.50Q467 483 467 369Q467 251 536 194Q605 137 786 131Q828 131 904 127Q980 123 1016 123Q1053 123 1132 127Q1211 131 1253 131Q1446 137 1517.50 194Q1589 251 1589 369Q1589 492 1522 541Q1455 590 1253 590L786 590M786 1171Q592 1171 529.50 1115.50Q467 1060 467 942Q467 833 535 784Q603 735 786 729Q828 729 904 725Q980 721 1016 721Q1053 721 1132 725Q1211 729 1253 729Q1386 734 1458 755.50Q1530 777 1559.50 821.50Q1589 866 1589 942Q1589 1063 1514 1117Q1439 1171 1253 1171L786 1171M1262 1303Q1526 1297 1623 1214Q1720 1131 1720 934Q1720 778 1634 721Q1548 664 1475 664L1475 672Q1536 666 1628 603.50Q1720 541 1720 360Q1720 12 1262 0L786 0Q551 6 439.50 92.50Q328 179 328 360Q328 540 420 603Q512 666 573 672L565 664Q494 664 411 721Q328 778 328 934Q328 1064 368 1142.50Q408 1221 508.50 1260Q609 1299 786 1303L1262 1303M1180 1688L1040 1688L1040 2834L688 2490L598 2580L975 2966L1180 2966L1180 1688M221 1565L1810 1565L1810 1442L221 1442L221 1565Z"  horiz-adv-x="1999" vert-adv-y="4096"  />

      
      <glyph glyph-name="uniad" unicode="&#xad;" d="M164 2470L1753 2470L1753 2310L164 2310L164 2470Z"  horiz-adv-x="1913" vert-adv-y="4096"  />

      
      <glyph glyph-name="uniae" unicode="&#xae;" d="M1352 836Q1071 836 848 929.50Q625 1023 475.50 1183.50Q326 1344 249 1547Q172 1750 172 1966Q172 2258 308.50 2521.50Q445 2785 712.50 2949Q980 3113 1352 3113Q1722 3113 1986 2951.50Q2250 2790 2382.50 2529.50Q2515 2269 2515 1974Q2515 1680 2382.50 1419.50Q2250 1159 1986 997.50Q1722 836 1352 836M1352 3023Q1091 3023 885.50 2935.50Q680 2848 541.50 2697Q403 2546 332.50 2359Q262 2172 262 1974Q262 1776 332 1590Q402 1404 541 1252.50Q680 1101 885.50 1013.50Q1091 926 1352 926L1360 926Q1700 926 1943.50 1073.50Q2187 1221 2310 1460Q2433 1699 2433 1966Q2433 2236 2309.50 2479.50Q2186 2723 1940 2873Q1694 3023 1352 3023M958 2597L1483 2597Q1550 2597 1659.50 2525.50Q1769 2454 1769 2253Q1769 2124 1705 2051.50Q1641 1979 1569 1956Q1497 1933 1466 1933L1245 1933L1786 1368L1671 1368L1139 1933L1057 1933L1057 1368L958 1368L958 2597M1057 2023L1483 2023Q1532 2029 1605.50 2074Q1679 2119 1679 2236L1679 2253Q1679 2397 1600 2452Q1521 2507 1475 2507L1057 2507L1057 2023Z"  horiz-adv-x="2671" vert-adv-y="4096"  />

      
      <glyph glyph-name="uniaf" unicode="&#xaf;" d="M713 0L418 0L418 2843L713 2843L713 0M115 3310L377 3310L377 3047L115 3047L115 3310M745 3310L1008 3310L1008 3047L745 3047L745 3310Z"  horiz-adv-x="1155" vert-adv-y="4096"  />

      
      <glyph glyph-name="unib0" unicode="&#xb0;" d="M213 2490Q213 2592 279.50 2660Q346 2728 483 2728L705 2728Q843 2728 909 2660.50Q975 2593 975 2490L975 2351Q975 2251 906.50 2186.50Q838 2122 705 2122L483 2122Q351 2122 282 2187Q213 2252 213 2351L213 2490M303 2351Q303 2204 483 2204L705 2204Q885 2204 885 2351L885 2490Q885 2638 705 2638L483 2638Q303 2638 303 2490L303 2351Z"  horiz-adv-x="1155" vert-adv-y="4096"  />

      
      <glyph glyph-name="unib1" unicode="&#xb1;" d="M221 901L1524 901L1524 606L221 606L221 901M147 1868L737 1868L737 2458L1008 2458L1008 1868L1606 1868L1606 1589L1008 1589L1008 999L737 999L737 1589L147 1589L147 1868Z"  horiz-adv-x="1827" vert-adv-y="4096"  />

      
      <glyph glyph-name="unib2" unicode="&#xb2;" d="M713 0L418 0L418 2843L713 2843L713 0Z"  horiz-adv-x="1155" vert-adv-y="4096"  />

      
      <glyph glyph-name="unib3" unicode="&#xb3;" d="M319 0L319 2023L614 2023L614 0L319 0M319 2843L614 2843L614 2548L319 2548L319 2843Z"  horiz-adv-x="934" vert-adv-y="4096"  />

      
      <glyph glyph-name="unib4" unicode="&#xb4;" d="M778 2982L147 2425L262 2327L950 2785L778 2982Z"  horiz-adv-x="1155" vert-adv-y="4096"  />

      
      <glyph glyph-name="unib5" unicode="&#xb5;" d="M1180 1688L1040 1688L1040 2834L688 2490L598 2580L975 2966L1180 2966L1180 1688M1720 860Q1720 717 1682.50 633Q1645 549 1545 508Q1445 467 1262 467L803 467Q459 467 459 238L459 131L1720 131L1720 0L328 0L328 238Q328 598 803 598L1262 598Q1450 598 1519.50 655Q1589 712 1589 860Q1589 1025 1522 1090Q1455 1155 1262 1155L803 1155Q621 1155 552 1100.50Q483 1046 483 934L336 934Q336 1286 803 1286L1262 1286Q1442 1286 1541 1246Q1640 1206 1680 1114.50Q1720 1023 1720 860M221 1548L1810 1548L1810 1425L221 1425L221 1548Z"  horiz-adv-x="1999" vert-adv-y="4096"  />

      
      <glyph glyph-name="unib6" unicode="&#xb6;" d="M2097-229L1778-229L1778 1221L1155 1221Q812 1221 591 1316.50Q370 1412 267 1588.50Q164 1765 164 2007Q164 2843 1163 2843L2097 2843L2097-229M2679-229L2384-229L2384 2843L2679 2843L2679-229Z"  horiz-adv-x="2933" vert-adv-y="4096"  />

      
      <glyph glyph-name="unib7" unicode="&#xb7;" d="M246 1237L246 1556L565 1556L565 1237L246 1237Z"  horiz-adv-x="803" vert-adv-y="4096"  />

      
      <glyph glyph-name="unib8" unicode="&#xb8;" d="M2490 1278Q2490 1503 2343.50 1640.50Q2197 1778 1942 1778L1016 1778Q789 1778 644.50 1639Q500 1500 500 1278L2490 1278M2064-8L1073-8Q635-8 420 184.50Q205 377 205 754L205 1286Q205 1476 306.50 1648Q408 1820 604 1926Q800 2032 1065 2032L1917 2032Q2333 2032 2559 1827Q2785 1622 2785 1319L2785 1024L500 1024L500 795Q500 246 1065 246L2023 246Q2256 246 2373 349Q2490 452 2490 606L2490 647L2785 647L2785 606Q2785 462 2716 321.50Q2647 181 2485 86.50Q2323-8 2064-8M975 2843L1270 2843L1270 2548L975 2548L975 2843M1704 2843L1999 2843L1999 2548L1704 2548L1704 2843Z"  horiz-adv-x="2982" vert-adv-y="4096"  />

      
      <glyph glyph-name="unib9" unicode="&#xb9;" d="M238 0L238 2843L893 2843L3080 295L3080 2843L3375 2843L3375 0L2949 0L696 2621L532 2621L532 0L238 0M3613 1413L4891 1413L4891 1249L3613 1249L3613 1413M3596 2134Q3610 2535 4039 2535L4448 2535Q4874 2535 4891 2134L4891 1913Q4874 1511 4448 1511L4039 1511Q3608 1511 3596 1913L3596 2134M3744 1913Q3744 1642 4055 1642L4432 1642Q4743 1642 4743 1913L4743 2134Q4743 2404 4432 2404L4055 2404Q3898 2404 3824 2341.50Q3750 2279 3744 2134L3744 1913Z"  horiz-adv-x="5165" vert-adv-y="4096"  />

      
      <glyph glyph-name="uniba" unicode="&#xba;" d="M1896 238L995 238Q773 238 620 374.50Q467 511 467 745L467 942L2195 942L2195 1188L467 1188L467 1253Q467 1519 610 1652.50Q753 1786 1016 1786L1901 1786Q2232 1786 2345 1638Q2458 1490 2458 1343L2458 1319L2753 1319L2753 1352Q2753 1466 2694.50 1617Q2636 1768 2447 1895.50Q2258 2023 1909 2023L1901 2032L1016 2032Q738 2032 548.50 1930.50Q359 1829 265.50 1652Q172 1475 172 1253L172 745Q172 391 376 191.50Q580-8 991-8L1901-8Q2414-8 2583.50 226Q2753 460 2753 680L2753 713L2458 713L2458 672Q2458 591 2417 493Q2376 395 2250.50 316.50Q2125 238 1896 238Z"  horiz-adv-x="2933" vert-adv-y="4096"  />

      
      <glyph glyph-name="unibb" unicode="&#xbb;" d="M1032 1139L328 1851L459 1982L1303 1139L483 319L344 451L1032 1139M1794 1139L1081 1851L1221 1982L2064 1139L1237 319L1106 451L1794 1139Z"  horiz-adv-x="2269" vert-adv-y="4096"  />

      
      <glyph glyph-name="unibc" unicode="&#xbc;" d="M221 1343L1565 1343L1565 1049L221 1049L221 1343M745 360L745 680L1065 680L1065 360L745 360M745 1704L745 2023L1065 2023L1065 1704L745 1704Z"  horiz-adv-x="1827" vert-adv-y="4096"  />

      
      <glyph glyph-name="unibd" unicode="&#xbd;" d="M532 1810L950 1393L1368 1810L1556 1618L1143 1200L1565 778L1372 590L950 1012L528 590L336 778L758 1200L344 1618L532 1810Z"  horiz-adv-x="1917" vert-adv-y="4096"  />

      
      <glyph glyph-name="unibe" unicode="&#xbe;" d="M246 0L246 319L565 319L565 0L246 0M1368 0L1368 319L1688 319L1688 0L1368 0M807 0L807 319L1126 319L1126 0L807 0Z"  horiz-adv-x="1909" vert-adv-y="4096"  />

      
      <glyph glyph-name="unibf" unicode="&#xbf;" d="M-57 2843L238 2843L238 2548L-57 2548L-57 2843M672 2843L967 2843L967 2548L672 2548L672 2843M319 0L319 2023L614 2023L614 0L319 0Z"  horiz-adv-x="905" vert-adv-y="4096"  />

      
      <glyph glyph-name="unic0" unicode="&#xc0;" d="M360 0L33 0L1507 2843L1958 2843L3432 0L3088 0L2724 713L725 713L360 0M885 999L2572 999L1729 2638L885 999Z"  horiz-adv-x="3465" vert-adv-y="4096"  />

      
      <glyph glyph-name="uni0410" unicode="&#x0410;" d="M360 0L33 0L1507 2843L1958 2843L3432 0L3088 0L2724 713L725 713L360 0M885 999L2572 999L1729 2638L885 999Z"  horiz-adv-x="3465" vert-adv-y="4096"  />

      
      <glyph glyph-name="unic1" unicode="&#xc1;" d="M254 2843L254 0L2281 0Q2536 0 2705 46.50Q2874 93 2977.50 192.50Q3081 292 3125.50 445.50Q3170 599 3170 827Q3170 1144 3070.50 1327Q2971 1510 2754 1588.50Q2537 1667 2175 1667L549 1667L549 2556L2929 2556L2929 2843L254 2843M549 1380L2261 1380Q2493 1380 2626.50 1328Q2760 1276 2817.50 1155.50Q2875 1035 2875 819Q2875 604 2816.50 488.50Q2758 373 2634 330Q2510 287 2290 287L549 287L549 1380Z"  horiz-adv-x="3334" vert-adv-y="4096"  />

      
      <glyph glyph-name="uni0411" unicode="&#x0411;" d="M254 2843L254 0L2281 0Q2536 0 2705 46.50Q2874 93 2977.50 192.50Q3081 292 3125.50 445.50Q3170 599 3170 827Q3170 1144 3070.50 1327Q2971 1510 2754 1588.50Q2537 1667 2175 1667L549 1667L549 2556L2929 2556L2929 2843L254 2843M549 1380L2261 1380Q2493 1380 2626.50 1328Q2760 1276 2817.50 1155.50Q2875 1035 2875 819Q2875 604 2816.50 488.50Q2758 373 2634 330Q2510 287 2290 287L549 287L549 1380Z"  horiz-adv-x="3334" vert-adv-y="4096"  />

      
      <glyph glyph-name="unic2" unicode="&#xc2;" d="M549 2556L549 1630L2482 1630Q2786 1630 2923 1726Q3060 1822 3060 2081Q3060 2322 2926.50 2439Q2793 2556 2482 2556L549 2556M254 0L254 2843L2367 2843Q2875 2843 3117 2662.50Q3359 2482 3359 2114Q3359 1822 3250.50 1682Q3142 1542 3002 1499Q3079 1482 3178 1418.50Q3277 1355 3359 1209.50Q3441 1064 3441 836Q3441 527 3329.50 342.50Q3218 158 2998 79Q2778 0 2441 0L254 0M549 1343L549 287L2556 287Q2852 287 2999 417Q3146 547 3146 836Q3146 1109 2991 1226Q2836 1343 2531 1343L549 1343Z"  horiz-adv-x="3645" vert-adv-y="4096"  />

      
      <glyph glyph-name="uni0412" unicode="&#x0412;" d="M549 2556L549 1630L2482 1630Q2786 1630 2923 1726Q3060 1822 3060 2081Q3060 2322 2926.50 2439Q2793 2556 2482 2556L549 2556M254 0L254 2843L2367 2843Q2875 2843 3117 2662.50Q3359 2482 3359 2114Q3359 1822 3250.50 1682Q3142 1542 3002 1499Q3079 1482 3178 1418.50Q3277 1355 3359 1209.50Q3441 1064 3441 836Q3441 527 3329.50 342.50Q3218 158 2998 79Q2778 0 2441 0L254 0M549 1343L549 287L2556 287Q2852 287 2999 417Q3146 547 3146 836Q3146 1109 2991 1226Q2836 1343 2531 1343L549 1343Z"  horiz-adv-x="3645" vert-adv-y="4096"  />

      
      <glyph glyph-name="unic3" unicode="&#xc3;" d="M279 2843L279 0L573 0L573 2556L2716 2556L2716 2843L279 2843Z"  horiz-adv-x="2933" vert-adv-y="4096"  />

      
      <glyph glyph-name="uni0413" unicode="&#x0413;" d="M279 2843L279 0L573 0L573 2556L2716 2556L2716 2843L279 2843Z"  horiz-adv-x="2933" vert-adv-y="4096"  />

      
      <glyph glyph-name="unic4" unicode="&#xc4;" d="M3215 287L3215 2552L999 2552L999 1094Q999 828 924.50 611Q850 394 688 287L3215 287M3510 2839L3510 287L3748 287L3748-770L3465-770L3465 0L463 0L463-770L184-770L184 287L336 287Q519 417 612 590.50Q705 764 705 1016L705 2839L3510 2839Z"  horiz-adv-x="3895" vert-adv-y="4096"  />

      
      <glyph glyph-name="uni0414" unicode="&#x0414;" d="M3215 287L3215 2552L999 2552L999 1094Q999 828 924.50 611Q850 394 688 287L3215 287M3510 2839L3510 287L3748 287L3748-770L3465-770L3465 0L463 0L463-770L184-770L184 287L336 287Q519 417 612 590.50Q705 764 705 1016L705 2839L3510 2839Z"  horiz-adv-x="3895" vert-adv-y="4096"  />

      
      <glyph glyph-name="unic5" unicode="&#xc5;" d="M246 0L246 2843L2757 2843L2757 2556L541 2556L541 1614L2707 1614L2707 1327L541 1327L541 287L2765 287L2765 0L246 0Z"  horiz-adv-x="3023" vert-adv-y="4096"  />

      
      <glyph glyph-name="uni0415" unicode="&#x0415;" d="M246 0L246 2843L2757 2843L2757 2556L541 2556L541 1614L2707 1614L2707 1327L541 1327L541 287L2765 287L2765 0L246 0Z"  horiz-adv-x="3023" vert-adv-y="4096"  />

      
      <glyph glyph-name="unic6" unicode="&#xc6;" d="M2724 0L3019 0L3019 1384L3543 1384L5194 0L5657 0L3785 1536L5620 2847L5145 2847L3494 1671L3019 1671L3019 2843L2724 2843L2724 1671L2249 1671L598 2847L123 2847L1958 1536L86 0L549 0L2204 1384L2724 1384L2724 0Z"  horiz-adv-x="5767" vert-adv-y="4096"  />

      
      <glyph glyph-name="uni0416" unicode="&#x0416;" d="M2724 0L3019 0L3019 1384L3543 1384L5194 0L5657 0L3785 1536L5620 2847L5145 2847L3494 1671L3019 1671L3019 2843L2724 2843L2724 1671L2249 1671L598 2847L123 2847L1958 1536L86 0L549 0L2204 1384L2724 1384L2724 0Z"  horiz-adv-x="5767" vert-adv-y="4096"  />

      
      <glyph glyph-name="unic7" unicode="&#xc7;" d="M172 803L467 803Q467 528 634 403.50Q801 279 1200 279L2445 279Q2737 279 2898.50 328Q3060 377 3131.50 498Q3203 619 3203 844Q3203 1323 2724 1323L967 1323L967 1610L2642 1610Q2838 1610 2944.50 1647.50Q3051 1685 3096.50 1776.50Q3142 1868 3142 2036Q3142 2244 3077.50 2363Q3013 2482 2854 2535.50Q2695 2589 2404 2589L1200 2589Q929 2589 765.50 2526Q602 2463 534.50 2347Q467 2231 467 2064L172 2064Q172 2875 1204 2875L2408 2875Q2763 2875 2993.50 2776Q3224 2677 3330.50 2497.50Q3437 2318 3437 2077Q3437 1793 3346 1661.50Q3255 1530 3097 1483Q3309 1408 3403.50 1247Q3498 1086 3498 778Q3498 499 3394 326.50Q3290 154 3059 73Q2828-8 2449-8L1204-8Q928-8 728.50 44Q529 96 407.50 196.50Q286 297 229 449Q172 601 172 803Z"  horiz-adv-x="3736" vert-adv-y="4096"  />

      
      <glyph glyph-name="uni0417" unicode="&#x0417;" d="M172 803L467 803Q467 528 634 403.50Q801 279 1200 279L2445 279Q2737 279 2898.50 328Q3060 377 3131.50 498Q3203 619 3203 844Q3203 1323 2724 1323L967 1323L967 1610L2642 1610Q2838 1610 2944.50 1647.50Q3051 1685 3096.50 1776.50Q3142 1868 3142 2036Q3142 2244 3077.50 2363Q3013 2482 2854 2535.50Q2695 2589 2404 2589L1200 2589Q929 2589 765.50 2526Q602 2463 534.50 2347Q467 2231 467 2064L172 2064Q172 2875 1204 2875L2408 2875Q2763 2875 2993.50 2776Q3224 2677 3330.50 2497.50Q3437 2318 3437 2077Q3437 1793 3346 1661.50Q3255 1530 3097 1483Q3309 1408 3403.50 1247Q3498 1086 3498 778Q3498 499 3394 326.50Q3290 154 3059 73Q2828-8 2449-8L1204-8Q928-8 728.50 44Q529 96 407.50 196.50Q286 297 229 449Q172 601 172 803Z"  horiz-adv-x="3736" vert-adv-y="4096"  />

      
      <glyph glyph-name="unic8" unicode="&#xc8;" d="M3375 0L3375 2843L2806 2843L557 221L532 221L532 2843L238 2843L238 0L717 0L2970 2621L3080 2621L3080 0L3375 0Z"  horiz-adv-x="3604" vert-adv-y="4096"  />

      
      <glyph glyph-name="uni0418" unicode="&#x0418;" d="M3375 0L3375 2843L2806 2843L557 221L532 221L532 2843L238 2843L238 0L717 0L2970 2621L3080 2621L3080 0L3375 0Z"  horiz-adv-x="3604" vert-adv-y="4096"  />

      
      <glyph glyph-name="unic9" unicode="&#xc9;" d="M3375 0L3375 2843L2806 2843L557 221L532 221L532 2843L238 2843L238 0L717 0L2970 2621L3080 2621L3080 0L3375 0M1872 2945Q2152 2945 2327.50 3024Q2503 3103 2588 3218.50Q2673 3334 2698.50 3439Q2724 3544 2724 3625L2429 3625Q2429 3545 2389 3447Q2349 3349 2223.50 3270Q2098 3191 1868 3191L1544 3191Q1216 3191 1099.50 3335Q983 3479 983 3625L688 3625Q688 3543 723 3430.50Q758 3318 849 3207Q940 3096 1112.50 3020.50Q1285 2945 1540 2945L1872 2945Z"  horiz-adv-x="3604" vert-adv-y="4096"  />

      
      <glyph glyph-name="uni0419" unicode="&#x0419;" d="M3375 0L3375 2843L2806 2843L557 221L532 221L532 2843L238 2843L238 0L717 0L2970 2621L3080 2621L3080 0L3375 0M1872 2945Q2152 2945 2327.50 3024Q2503 3103 2588 3218.50Q2673 3334 2698.50 3439Q2724 3544 2724 3625L2429 3625Q2429 3545 2389 3447Q2349 3349 2223.50 3270Q2098 3191 1868 3191L1544 3191Q1216 3191 1099.50 3335Q983 3479 983 3625L688 3625Q688 3543 723 3430.50Q758 3318 849 3207Q940 3096 1112.50 3020.50Q1285 2945 1540 2945L1872 2945Z"  horiz-adv-x="3604" vert-adv-y="4096"  />

      
      <glyph glyph-name="unica" unicode="&#xca;" d="M205 0L205 2843L500 2843L500 1671L975 1671L2908 2843L3408 2843L1286 1548L3391 0L2884 0L987 1384L500 1384L500 0L205 0Z"  horiz-adv-x="3465" vert-adv-y="4096"  />

      
      <glyph glyph-name="uni041A" unicode="&#x041A;" d="M205 0L205 2843L500 2843L500 1671L975 1671L2908 2843L3408 2843L1286 1548L3391 0L2884 0L987 1384L500 1384L500 0L205 0Z"  horiz-adv-x="3465" vert-adv-y="4096"  />

      
      <glyph glyph-name="unicb" unicode="&#xcb;" d="M3166 2548L848 2548L848 672Q848 310 682 155Q516 0 201 0L82 0L82 287L238 287Q364 287 458.50 375.50Q553 464 553 672L553 2843L3461 2843L3461 0L3166 0L3166 2548Z"  horiz-adv-x="3674" vert-adv-y="4096"  />

      
      <glyph glyph-name="uni041B" unicode="&#x041B;" d="M3166 2548L848 2548L848 672Q848 310 682 155Q516 0 201 0L82 0L82 287L238 287Q364 287 458.50 375.50Q553 464 553 672L553 2843L3461 2843L3461 0L3166 0L3166 2548Z"  horiz-adv-x="3674" vert-adv-y="4096"  />

      
      <glyph glyph-name="unicc" unicode="&#xcc;" d="M4375 2843L3744 2843L2310 418L868 2843L238 2843L238 0L532 0L532 2613L700 2613L2232 0L2384 0L3916 2613L4080 2613L4080 0L4375 0L4375 2843Z"  horiz-adv-x="4620" vert-adv-y="4096"  />

      
      <glyph glyph-name="uni041C" unicode="&#x041C;" d="M4375 2843L3744 2843L2310 418L868 2843L238 2843L238 0L532 0L532 2613L700 2613L2232 0L2384 0L3916 2613L4080 2613L4080 0L4375 0L4375 2843Z"  horiz-adv-x="4620" vert-adv-y="4096"  />

      
      <glyph glyph-name="unicd" unicode="&#xcd;" d="M279 0L279 2843L573 2843L573 1614L3097 1614L3097 2843L3391 2843L3391 0L3097 0L3097 1319L573 1319L573 0L279 0Z"  horiz-adv-x="3604" vert-adv-y="4096"  />

      
      <glyph glyph-name="uni041D" unicode="&#x041D;" d="M279 0L279 2843L573 2843L573 1614L3097 1614L3097 2843L3391 2843L3391 0L3097 0L3097 1319L573 1319L573 0L279 0Z"  horiz-adv-x="3604" vert-adv-y="4096"  />

      
      <glyph glyph-name="unice" unicode="&#xce;" d="M3244 1884Q3239 2172 3174.50 2321Q3110 2470 2957 2529.50Q2804 2589 2511 2589L1266 2589Q992 2589 831.50 2526.50Q671 2464 593 2310Q515 2156 508 1884L508 975Q511 769 552.50 636Q594 503 683 426.50Q772 350 912.50 318.50Q1053 287 1266 287L2511 287Q2818 287 2970 343.50Q3122 400 3180.50 542Q3239 684 3244 975L3244 1884M3539 975Q3536 669 3482 479.50Q3428 290 3310 185.50Q3192 81 3003 40.50Q2814 0 2515 0L1270 0Q980 0 779.50 51.50Q579 103 456 215.50Q333 328 274.50 513.50Q216 699 213 975L213 1860Q216 2139 271 2329.50Q326 2520 446.50 2640.50Q567 2761 767 2818Q967 2875 1270 2875L2515 2875Q2877 2875 3096 2791Q3315 2707 3425 2486Q3535 2265 3539 1860L3539 975Z"  horiz-adv-x="3736" vert-adv-y="4096"  />

      
      <glyph glyph-name="uni041E" unicode="&#x041E;" d="M3244 1884Q3239 2172 3174.50 2321Q3110 2470 2957 2529.50Q2804 2589 2511 2589L1266 2589Q992 2589 831.50 2526.50Q671 2464 593 2310Q515 2156 508 1884L508 975Q511 769 552.50 636Q594 503 683 426.50Q772 350 912.50 318.50Q1053 287 1266 287L2511 287Q2818 287 2970 343.50Q3122 400 3180.50 542Q3239 684 3244 975L3244 1884M3539 975Q3536 669 3482 479.50Q3428 290 3310 185.50Q3192 81 3003 40.50Q2814 0 2515 0L1270 0Q980 0 779.50 51.50Q579 103 456 215.50Q333 328 274.50 513.50Q216 699 213 975L213 1860Q216 2139 271 2329.50Q326 2520 446.50 2640.50Q567 2761 767 2818Q967 2875 1270 2875L2515 2875Q2877 2875 3096 2791Q3315 2707 3425 2486Q3535 2265 3539 1860L3539 975Z"  horiz-adv-x="3736" vert-adv-y="4096"  />

      
      <glyph glyph-name="unicf" unicode="&#xcf;" d="M279 0L279 2843L3391 2843L3391 0L3097 0L3097 2548L573 2548L573 0L279 0Z"  horiz-adv-x="3604" vert-adv-y="4096"  />

      
      <glyph glyph-name="uni041F" unicode="&#x041F;" d="M279 0L279 2843L3391 2843L3391 0L3097 0L3097 2548L573 2548L573 0L279 0Z"  horiz-adv-x="3604" vert-adv-y="4096"  />

      
      <glyph glyph-name="unid0" unicode="&#xd0;" d="M254 4L254 2843L2171 2843Q2528 2843 2746.50 2756.50Q2965 2670 3067.50 2477Q3170 2284 3170 1966Q3170 1650 3071 1479.50Q2972 1309 2759.50 1242.50Q2547 1176 2175 1176L549 1176L549 4L254 4M549 1462L2261 1462Q2502 1462 2631.50 1500.50Q2761 1539 2818 1645.50Q2875 1752 2875 1966Q2875 2292 2741 2424Q2607 2556 2290 2556L549 2556L549 1462Z"  horiz-adv-x="3334" vert-adv-y="4096"  />

      
      <glyph glyph-name="uni0420" unicode="&#x0420;" d="M254 4L254 2843L2171 2843Q2528 2843 2746.50 2756.50Q2965 2670 3067.50 2477Q3170 2284 3170 1966Q3170 1650 3071 1479.50Q2972 1309 2759.50 1242.50Q2547 1176 2175 1176L549 1176L549 4L254 4M549 1462L2261 1462Q2502 1462 2631.50 1500.50Q2761 1539 2818 1645.50Q2875 1752 2875 1966Q2875 2292 2741 2424Q2607 2556 2290 2556L549 2556L549 1462Z"  horiz-adv-x="3334" vert-adv-y="4096"  />

      
      <glyph glyph-name="unid1" unicode="&#xd1;" d="M2466-8L1221-8Q837-8 610 91Q383 190 280 410Q177 630 172 1008L172 1835Q177 2213 280 2439.50Q383 2666 612 2770.50Q841 2875 1221 2875L2466 2875Q3498 2875 3498 2064L3203 2064Q3203 2231 3135.50 2347Q3068 2463 2904.50 2526Q2741 2589 2470 2589L1225 2589Q930 2589 767.50 2521.50Q605 2454 536 2291.50Q467 2129 467 1835L467 1008Q467 792 506.50 653Q546 514 634 432.50Q722 351 864.50 315Q1007 279 1225 279L2470 279Q2869 279 3036 403.50Q3203 528 3203 803L3498 803Q3498 532 3395.50 352.50Q3293 173 3064 82.50Q2835-8 2466-8Z"  horiz-adv-x="3736" vert-adv-y="4096"  />

      
      <glyph glyph-name="uni0421" unicode="&#x0421;" d="M2466-8L1221-8Q837-8 610 91Q383 190 280 410Q177 630 172 1008L172 1835Q177 2213 280 2439.50Q383 2666 612 2770.50Q841 2875 1221 2875L2466 2875Q3498 2875 3498 2064L3203 2064Q3203 2231 3135.50 2347Q3068 2463 2904.50 2526Q2741 2589 2470 2589L1225 2589Q930 2589 767.50 2521.50Q605 2454 536 2291.50Q467 2129 467 1835L467 1008Q467 792 506.50 653Q546 514 634 432.50Q722 351 864.50 315Q1007 279 1225 279L2470 279Q2869 279 3036 403.50Q3203 528 3203 803L3498 803Q3498 532 3395.50 352.50Q3293 173 3064 82.50Q2835-8 2466-8Z"  horiz-adv-x="3736" vert-adv-y="4096"  />

      
      <glyph glyph-name="unid2" unicode="&#xd2;" d="M90 2843L3154 2843L3154 2556L1765 2556L1765 0L1470 0L1470 2556L90 2556L90 2843Z"  horiz-adv-x="3244" vert-adv-y="4096"  />

      
      <glyph glyph-name="uni0422" unicode="&#x0422;" d="M90 2843L3154 2843L3154 2556L1765 2556L1765 0L1470 0L1470 2556L90 2556L90 2843Z"  horiz-adv-x="3244" vert-adv-y="4096"  />

      
      <glyph glyph-name="unid3" unicode="&#xd3;" d="M2830 2847L3183 2847L1962 819Q1798 543 1685 388.50Q1572 234 1467.50 150Q1363 66 1239.50 33Q1116 0 930 0L831 0L831 287L934 287Q1089 287 1179.50 315.50Q1270 344 1334 410.50Q1398 477 1483 618L37 2847L377 2847L1651 848L2830 2847Z"  horiz-adv-x="3232" vert-adv-y="4096"  />

      
      <glyph glyph-name="uni0423" unicode="&#x0423;" d="M2830 2847L3183 2847L1962 819Q1798 543 1685 388.50Q1572 234 1467.50 150Q1363 66 1239.50 33Q1116 0 930 0L831 0L831 287L934 287Q1089 287 1179.50 315.50Q1270 344 1334 410.50Q1398 477 1483 618L37 2847L377 2847L1651 848L2830 2847Z"  horiz-adv-x="3232" vert-adv-y="4096"  />

      
      <glyph glyph-name="unid4" unicode="&#xd4;" d="M2109 2335L1249 2335Q1040 2333 903 2298.50Q766 2264 676 2183.50Q586 2103 542 1968Q498 1833 492 1626L492 1253Q495 1047 536 915Q577 783 665.50 705.50Q754 628 895 596.50Q1036 565 1249 565L2109 565L2109 2335M2404 2335L2404 565L3269 565Q3556 565 3718 623Q3880 681 3953 828.50Q4026 976 4026 1253L4026 1626Q4026 1898 3948 2052.50Q3870 2207 3705 2271Q3540 2335 3269 2335L2404 2335M2109 2875L2404 2875L2404 2621L3265 2621Q3660 2621 3891.50 2510Q4123 2399 4222 2176.50Q4321 1954 4321 1606L4321 1253Q4321 886 4217.50 674Q4114 462 3884.50 370.50Q3655 279 3265 279L2404 279L2404 0L2109 0L2109 279L1249 279Q953 279 756.50 329.50Q560 380 436.50 492.50Q313 605 254.50 791Q196 977 193 1253L193 1606Q196 1883 250 2073Q304 2263 424.50 2384.50Q545 2506 745.50 2563.50Q946 2621 1249 2621L2109 2621L2109 2875Z"  horiz-adv-x="4563" vert-adv-y="4096"  />

      
      <glyph glyph-name="uni0424" unicode="&#x0424;" d="M2109 2335L1249 2335Q1040 2333 903 2298.50Q766 2264 676 2183.50Q586 2103 542 1968Q498 1833 492 1626L492 1253Q495 1047 536 915Q577 783 665.50 705.50Q754 628 895 596.50Q1036 565 1249 565L2109 565L2109 2335M2404 2335L2404 565L3269 565Q3556 565 3718 623Q3880 681 3953 828.50Q4026 976 4026 1253L4026 1626Q4026 1898 3948 2052.50Q3870 2207 3705 2271Q3540 2335 3269 2335L2404 2335M2109 2875L2404 2875L2404 2621L3265 2621Q3660 2621 3891.50 2510Q4123 2399 4222 2176.50Q4321 1954 4321 1606L4321 1253Q4321 886 4217.50 674Q4114 462 3884.50 370.50Q3655 279 3265 279L2404 279L2404 0L2109 0L2109 279L1249 279Q953 279 756.50 329.50Q560 380 436.50 492.50Q313 605 254.50 791Q196 977 193 1253L193 1606Q196 1883 250 2073Q304 2263 424.50 2384.50Q545 2506 745.50 2563.50Q946 2621 1249 2621L2109 2621L2109 2875Z"  horiz-adv-x="4563" vert-adv-y="4096"  />

      
      <glyph glyph-name="unid5" unicode="&#xd5;" d="M2892 2843L1696 1638L500 2843L127 2843L1442 1507L-66 0L328 0L1696 1368L3064 0L3457 0L1950 1507L3285 2843L2892 2843Z"  horiz-adv-x="3514" vert-adv-y="4096"  />

      
      <glyph glyph-name="uni0425" unicode="&#x0425;" d="M2892 2843L1696 1638L500 2843L127 2843L1442 1507L-66 0L328 0L1696 1368L3064 0L3457 0L1950 1507L3285 2843L2892 2843Z"  horiz-adv-x="3514" vert-adv-y="4096"  />

      
      <glyph glyph-name="unid6" unicode="&#xd6;" d="M573 295L3097 295L3097 2843L3391 2843L3391 295L3629 295L3629-770L3351-770L3351 0L279 0L279 2843L573 2843L573 295Z"  horiz-adv-x="3834" vert-adv-y="4096"  />

      
      <glyph glyph-name="uni0426" unicode="&#x0426;" d="M573 295L3097 295L3097 2843L3391 2843L3391 295L3629 295L3629-770L3351-770L3351 0L279 0L279 2843L573 2843L573 295Z"  horiz-adv-x="3834" vert-adv-y="4096"  />

      
      <glyph glyph-name="unid7" unicode="&#xd7;" d="M2986 2843L3281 2843L3281 1909L3281 0L2986 0L2986 1397Q2798 1150 2265 1143L1315 1143Q938 1148 710 1234.50Q482 1321 370 1532Q258 1743 258 2118L258 2847L553 2847L553 2003Q553 1803 620.50 1682.50Q688 1562 852.50 1502Q1017 1442 1315 1438L2265 1438Q2519 1438 2666.50 1491.50Q2814 1545 2881.50 1642Q2949 1739 2986 1888L2986 2843Z"  horiz-adv-x="3494" vert-adv-y="4096"  />

      
      <glyph glyph-name="uni0427" unicode="&#x0427;" d="M2986 2843L3281 2843L3281 1909L3281 0L2986 0L2986 1397Q2798 1150 2265 1143L1315 1143Q938 1148 710 1234.50Q482 1321 370 1532Q258 1743 258 2118L258 2847L553 2847L553 2003Q553 1803 620.50 1682.50Q688 1562 852.50 1502Q1017 1442 1315 1438L2265 1438Q2519 1438 2666.50 1491.50Q2814 1545 2881.50 1642Q2949 1739 2986 1888L2986 2843Z"  horiz-adv-x="3494" vert-adv-y="4096"  />

      
      <glyph glyph-name="unid8" unicode="&#xd8;" d="M311 2843L606 2843L606 287L2314 287L2314 2843L2609 2843L2609 287L4317 287L4317 2843L4612 2843L4612 0L311 0L311 2843Z"  horiz-adv-x="4927" vert-adv-y="4096"  />

      
      <glyph glyph-name="uni0428" unicode="&#x0428;" d="M311 2843L606 2843L606 287L2314 287L2314 2843L2609 2843L2609 287L4317 287L4317 2843L4612 2843L4612 0L311 0L311 2843Z"  horiz-adv-x="4927" vert-adv-y="4096"  />

      
      <glyph glyph-name="unid9" unicode="&#xd9;" d="M311 2843L606 2843L606 287L2314 287L2314 2843L2609 2843L2609 287L4317 287L4317 2843L4612 2843L4612 287L4854 287L4854-778L4571-778L4571 0L311 0L311 2843Z"  horiz-adv-x="4927" vert-adv-y="4096"  />

      
      <glyph glyph-name="uni0429" unicode="&#x0429;" d="M311 2843L606 2843L606 287L2314 287L2314 2843L2609 2843L2609 287L4317 287L4317 2843L4612 2843L4612 287L4854 287L4854-778L4571-778L4571 0L311 0L311 2843Z"  horiz-adv-x="4927" vert-adv-y="4096"  />

      
      <glyph glyph-name="unida" unicode="&#xda;" d="M705 2843L66 2843L66 2556L705 2556L705 0L2732 0Q2987 0 3156 46.50Q3325 93 3428.50 192.50Q3532 292 3576.50 445.50Q3621 599 3621 827Q3621 1144 3521.50 1327Q3422 1510 3205 1588.50Q2988 1667 2626 1667L999 1667L999 2843L705 2843M999 1380L2712 1380Q2944 1380 3077 1328Q3210 1276 3268 1155.50Q3326 1035 3326 819Q3326 604 3267.50 488.50Q3209 373 3085 330Q2961 287 2740 287L999 287L999 1380Z"  horiz-adv-x="3785" vert-adv-y="4096"  />

      
      <glyph glyph-name="uni042A" unicode="&#x042A;" d="M705 2843L66 2843L66 2556L705 2556L705 0L2732 0Q2987 0 3156 46.50Q3325 93 3428.50 192.50Q3532 292 3576.50 445.50Q3621 599 3621 827Q3621 1144 3521.50 1327Q3422 1510 3205 1588.50Q2988 1667 2626 1667L999 1667L999 2843L705 2843M999 1380L2712 1380Q2944 1380 3077 1328Q3210 1276 3268 1155.50Q3326 1035 3326 819Q3326 604 3267.50 488.50Q3209 373 3085 330Q2961 287 2740 287L999 287L999 1380Z"  horiz-adv-x="3785" vert-adv-y="4096"  />

      
      <glyph glyph-name="unidb" unicode="&#xdb;" d="M254 2843L254 0L2281 0Q2536 0 2705 46.50Q2874 93 2977.50 192.50Q3081 292 3125.50 445.50Q3170 599 3170 827Q3170 1144 3070.50 1327Q2971 1510 2754 1588.50Q2537 1667 2175 1667L549 1667L549 2843L254 2843M549 1380L2261 1380Q2493 1380 2626.50 1328Q2760 1276 2817.50 1155.50Q2875 1035 2875 819Q2875 604 2816.50 488.50Q2758 373 2634 330Q2510 287 2290 287L549 287L549 1380M3953 0L3658 0L3658 2843L3953 2843L3953 0Z"  horiz-adv-x="4211" vert-adv-y="4096"  />

      
      <glyph glyph-name="uni042B" unicode="&#x042B;" d="M254 2843L254 0L2281 0Q2536 0 2705 46.50Q2874 93 2977.50 192.50Q3081 292 3125.50 445.50Q3170 599 3170 827Q3170 1144 3070.50 1327Q2971 1510 2754 1588.50Q2537 1667 2175 1667L549 1667L549 2843L254 2843M549 1380L2261 1380Q2493 1380 2626.50 1328Q2760 1276 2817.50 1155.50Q2875 1035 2875 819Q2875 604 2816.50 488.50Q2758 373 2634 330Q2510 287 2290 287L549 287L549 1380M3953 0L3658 0L3658 2843L3953 2843L3953 0Z"  horiz-adv-x="4211" vert-adv-y="4096"  />

      
      <glyph glyph-name="unidc" unicode="&#xdc;" d="M254 2843L254 0L2281 0Q2536 0 2705 46.50Q2874 93 2977.50 192.50Q3081 292 3125.50 445.50Q3170 599 3170 827Q3170 1144 3070.50 1327Q2971 1510 2754 1588.50Q2537 1667 2175 1667L549 1667L549 2843L254 2843M549 1380L2261 1380Q2493 1380 2626.50 1328Q2760 1276 2817.50 1155.50Q2875 1035 2875 819Q2875 604 2816.50 488.50Q2758 373 2634 330Q2510 287 2290 287L549 287L549 1380Z"  horiz-adv-x="3334" vert-adv-y="4096"  />

      
      <glyph glyph-name="uni042C" unicode="&#x042C;" d="M254 2843L254 0L2281 0Q2536 0 2705 46.50Q2874 93 2977.50 192.50Q3081 292 3125.50 445.50Q3170 599 3170 827Q3170 1144 3070.50 1327Q2971 1510 2754 1588.50Q2537 1667 2175 1667L549 1667L549 2843L254 2843M549 1380L2261 1380Q2493 1380 2626.50 1328Q2760 1276 2817.50 1155.50Q2875 1035 2875 819Q2875 604 2816.50 488.50Q2758 373 2634 330Q2510 287 2290 287L549 287L549 1380Z"  horiz-adv-x="3334" vert-adv-y="4096"  />

      
      <glyph glyph-name="unidd" unicode="&#xdd;" d="M1204-8Q928-8 728.50 44Q529 96 407.50 196.50Q286 297 229 449Q172 601 172 803L467 803Q467 528 634 403.50Q801 279 1200 279L2445 279Q2735 279 2897.50 344Q3060 409 3131.50 566Q3203 723 3203 1008L3203 1323L745 1323L745 1610L3203 1610L3203 1835Q3203 2129 3134 2291.50Q3065 2454 2902.50 2521.50Q2740 2589 2445 2589L1200 2589Q929 2589 765.50 2526Q602 2463 534.50 2347Q467 2231 467 2064L172 2064Q172 2875 1204 2875L2449 2875Q2829 2875 3058 2770.50Q3287 2666 3390 2439.50Q3493 2213 3498 1835L3498 1008Q3493 630 3390 410Q3287 190 3060 91Q2833-8 2449-8L1204-8Z"  horiz-adv-x="3736" vert-adv-y="4096"  />

      
      <glyph glyph-name="uni042D" unicode="&#x042D;" d="M1204-8Q928-8 728.50 44Q529 96 407.50 196.50Q286 297 229 449Q172 601 172 803L467 803Q467 528 634 403.50Q801 279 1200 279L2445 279Q2735 279 2897.50 344Q3060 409 3131.50 566Q3203 723 3203 1008L3203 1323L745 1323L745 1610L3203 1610L3203 1835Q3203 2129 3134 2291.50Q3065 2454 2902.50 2521.50Q2740 2589 2445 2589L1200 2589Q929 2589 765.50 2526Q602 2463 534.50 2347Q467 2231 467 2064L172 2064Q172 2875 1204 2875L2449 2875Q2829 2875 3058 2770.50Q3287 2666 3390 2439.50Q3493 2213 3498 1835L3498 1008Q3493 630 3390 410Q3287 190 3060 91Q2833-8 2449-8L1204-8Z"  horiz-adv-x="3736" vert-adv-y="4096"  />

      
      <glyph glyph-name="unide" unicode="&#xde;" d="M4379 1884Q4374 2169 4309.50 2319.50Q4245 2470 4091 2529.50Q3937 2589 3645 2589L2400 2589Q2125 2589 1965 2526Q1805 2463 1728 2311.50Q1651 2160 1642 1884L1642 975Q1647 767 1687.50 635Q1728 503 1817 426.50Q1906 350 2046.50 318.50Q2187 287 2400 287L3645 287Q3952 287 4104 343.50Q4256 400 4315 543.50Q4374 687 4379 975L4379 1884M4674 975Q4671 668 4616.50 479Q4562 290 4444 185.50Q4326 81 4137.50 40.50Q3949 0 3650 0L2404 0Q2114 0 1913.50 51.50Q1713 103 1590.50 215Q1468 327 1409.50 513Q1351 699 1348 975L1348 1319L545 1319L545 0L250 0L250 2843L545 2843L545 1606L1348 1606L1348 1860Q1353 2229 1450.50 2449.50Q1548 2670 1778 2772.50Q2008 2875 2404 2875L3650 2875Q4013 2875 4231.50 2791Q4450 2707 4560 2486.50Q4670 2266 4674 1860L4674 975Z"  horiz-adv-x="4870" vert-adv-y="4096"  />

      
      <glyph glyph-name="uni042E" unicode="&#x042E;" d="M4379 1884Q4374 2169 4309.50 2319.50Q4245 2470 4091 2529.50Q3937 2589 3645 2589L2400 2589Q2125 2589 1965 2526Q1805 2463 1728 2311.50Q1651 2160 1642 1884L1642 975Q1647 767 1687.50 635Q1728 503 1817 426.50Q1906 350 2046.50 318.50Q2187 287 2400 287L3645 287Q3952 287 4104 343.50Q4256 400 4315 543.50Q4374 687 4379 975L4379 1884M4674 975Q4671 668 4616.50 479Q4562 290 4444 185.50Q4326 81 4137.50 40.50Q3949 0 3650 0L2404 0Q2114 0 1913.50 51.50Q1713 103 1590.50 215Q1468 327 1409.50 513Q1351 699 1348 975L1348 1319L545 1319L545 0L250 0L250 2843L545 2843L545 1606L1348 1606L1348 1860Q1353 2229 1450.50 2449.50Q1548 2670 1778 2772.50Q2008 2875 2404 2875L3650 2875Q4013 2875 4231.50 2791Q4450 2707 4560 2486.50Q4670 2266 4674 1860L4674 975Z"  horiz-adv-x="4870" vert-adv-y="4096"  />

      
      <glyph glyph-name="unidf" unicode="&#xdf;" d="M3088 4L2793 4L2793 1176L1376 1176L467 4L57 4L1024 1176Q172 1182 172 1966Q172 2284 274.50 2477Q377 2670 595.50 2756.50Q814 2843 1171 2843L3088 2843L3088 4M2793 1462L2793 2556L1053 2556Q842 2556 714 2499.50Q586 2443 526.50 2313Q467 2183 467 1966Q467 1752 524.50 1645.50Q582 1539 711 1500.50Q840 1462 1081 1462L2793 1462Z"  horiz-adv-x="3355" vert-adv-y="4096"  />

      
      <glyph glyph-name="uni042F" unicode="&#x042F;" d="M3088 4L2793 4L2793 1176L1376 1176L467 4L57 4L1024 1176Q172 1182 172 1966Q172 2284 274.50 2477Q377 2670 595.50 2756.50Q814 2843 1171 2843L3088 2843L3088 4M2793 1462L2793 2556L1053 2556Q842 2556 714 2499.50Q586 2443 526.50 2313Q467 2183 467 1966Q467 1752 524.50 1645.50Q582 1539 711 1500.50Q840 1462 1081 1462L2793 1462Z"  horiz-adv-x="3355" vert-adv-y="4096"  />

      
      <glyph glyph-name="unie0" unicode="&#xe0;" d="M197 762Q197 981 353 1109Q509 1237 827 1237L2007 1237Q2217 1237 2292.50 1177Q2368 1117 2376 1077L2376 1356Q2376 1542 2255 1660Q2134 1778 1884 1778L1102 1778Q788 1778 695 1680Q602 1582 602 1516L602 1442L299 1442L299 1516L291 1516Q291 1578 336.50 1693.50Q382 1809 546 1916Q710 2023 1028 2023L1917 2023Q2679 2023 2679 1311L2679 0L2384 0L2384 164Q2355 123 2265.50 61.50Q2176 0 2023 0L877 0Q197 0 197 516L197 762M934 991Q672 991 582 920.50Q492 850 492 696L492 549Q492 403 589 328.50Q686 254 934 254L1933 254Q2166 254 2271 343Q2376 432 2376 623Q2376 991 1933 991L934 991Z"  horiz-adv-x="2912" vert-adv-y="4096"  />

      
      <glyph glyph-name="uni0430" unicode="&#x0430;" d="M197 762Q197 981 353 1109Q509 1237 827 1237L2007 1237Q2217 1237 2292.50 1177Q2368 1117 2376 1077L2376 1356Q2376 1542 2255 1660Q2134 1778 1884 1778L1102 1778Q788 1778 695 1680Q602 1582 602 1516L602 1442L299 1442L299 1516L291 1516Q291 1578 336.50 1693.50Q382 1809 546 1916Q710 2023 1028 2023L1917 2023Q2679 2023 2679 1311L2679 0L2384 0L2384 164Q2355 123 2265.50 61.50Q2176 0 2023 0L877 0Q197 0 197 516L197 762M934 991Q672 991 582 920.50Q492 850 492 696L492 549Q492 403 589 328.50Q686 254 934 254L1933 254Q2166 254 2271 343Q2376 432 2376 623Q2376 991 1933 991L934 991Z"  horiz-adv-x="2912" vert-adv-y="4096"  />

      
      <glyph glyph-name="unie1" unicode="&#xe1;" d="M2761 795Q2756 568 2668.50 388Q2581 208 2383.50 100Q2186-8 1876-8L1065-8Q771-8 574 85Q377 178 280.50 357Q184 536 184 791L184 1565Q184 1838 262.50 2069.50Q341 2301 517.50 2445Q694 2589 971 2589L1868 2589Q2078 2589 2193.50 2615.50Q2309 2642 2356.50 2697.50Q2404 2753 2404 2847L2638 2847Q2638 2667 2561.50 2555Q2485 2443 2325 2393Q2165 2343 1909 2343L1044 2343Q750 2343 612.50 2166Q475 1989 475 1737Q635 2032 1065 2032L1876 2032Q2193 2032 2390 1925Q2587 1818 2671.50 1640.50Q2756 1463 2761 1237L2761 795M2466 1237Q2466 1502 2308.50 1644Q2151 1786 1855 1786L1085 1786Q787 1786 631 1642.50Q475 1499 475 1237L475 795Q475 238 1085 238L1855 238Q2466 238 2466 795L2466 1237Z"  horiz-adv-x="2933" vert-adv-y="4096"  />

      
      </font>
</defs>
</svg>
