<svg width="80" height="80" viewBox="0 0 80 80" fill="none" xmlns="http://www.w3.org/2000/svg">
<path d="M5 30.3333C5 21.4658 5 17.0321 6.72573 13.6452C8.24373 10.6659 10.6659 8.24373 13.6452 6.72573C17.0321 5 21.4658 5 30.3333 5H49.6667C58.5342 5 62.9679 5 66.3549 6.72573C69.3341 8.24373 71.7563 10.6659 73.2743 13.6452C75 17.0321 75 21.4658 75 30.3333V49.6667C75 58.5342 75 62.9679 73.2743 66.3549C71.7563 69.3341 69.3341 71.7563 66.3549 73.2743C62.9679 75 58.5342 75 49.6667 75H30.3333C21.4658 75 17.0321 75 13.6452 73.2743C10.6659 71.7563 8.24373 69.3341 6.72573 66.3549C5 62.9679 5 58.5342 5 49.6667V30.3333Z" fill="#00005B"/>
<path d="M34.4733 48.9096H23.626L21.419 55.9548C21.3577 56.216 21.1171 56.4011 20.8554 56.3882H15.3614C15.048 56.3882 14.9385 56.2117 15.0326 55.8585L24.4242 28.2316C24.5182 27.9427 24.6121 27.6602 24.7061 27.2906C24.8289 26.6481 24.8918 25.9949 24.8939 25.3401C24.867 25.1466 25.034 24.9754 25.2226 25.0029H32.6889C32.9076 25.0029 33.0329 25.0832 33.0646 25.2438L43.7242 55.9066C43.8181 56.2279 43.7241 56.3885 43.4424 56.3882H37.3377C37.1236 56.4126 36.9192 56.2658 36.8682 56.0511L34.4733 48.9096ZM25.3165 42.9693H32.7359C31.5169 38.8039 30.1412 34.6931 29.0262 30.4952C27.7627 34.8498 26.5961 38.8883 25.3165 42.9693Z" fill="#9999FF"/>
<path d="M51.6521 46.1892C52.0837 49.7665 55.0877 51.472 58.4141 51.3993C60.2897 51.3624 62.2943 51.0713 64.0469 50.362C64.2031 50.2342 64.2817 50.3139 64.2817 50.6029V55.1783C64.2965 55.4164 64.1971 55.629 63.9999 55.7562C61.8216 56.7458 59.3209 57.0442 56.9583 57.0063C49.9138 57.0063 45.0759 52.0428 45.0779 44.8212C45.0595 37.9777 49.4992 32.2042 56.3948 32.2042C62.2399 32.0527 66.2867 36.7326 66.303 42.5576C66.303 43.6186 66.2438 44.6832 66.1152 45.7363C66.0903 45.9533 65.9055 46.1217 65.6925 46.1217C61.0242 46.1216 56.3331 46.1892 51.6521 46.1892ZM51.6521 41.8018C54.2537 41.8018 56.8704 41.8937 59.4705 41.7777C59.8614 41.7376 60.1516 41.6636 60.1516 41.2572C60.0973 39.0976 58.2748 37.3216 56.1601 37.4042C53.6049 37.2458 51.9697 39.4027 51.6521 41.8018Z" fill="#9999FF"/>
</svg>
