<svg width="80" height="80" viewBox="0 0 80 80" fill="none" xmlns="http://www.w3.org/2000/svg">
<path d="M5 30.3333C5 21.4658 5 17.0321 6.72573 13.6452C8.24373 10.6659 10.6659 8.24373 13.6452 6.72573C17.0321 5 21.4658 5 30.3333 5H49.6667C58.5342 5 62.9679 5 66.3549 6.72573C69.3341 8.24373 71.7563 10.6659 73.2743 13.6452C75 17.0321 75 21.4658 75 30.3333V49.6667C75 58.5342 75 62.9679 73.2743 66.3549C71.7563 69.3341 69.3341 71.7563 66.3549 73.2743C62.9679 75 58.5342 75 49.6667 75H30.3333C21.4658 75 17.0321 75 13.6452 73.2743C10.6659 71.7563 8.24373 69.3341 6.72573 66.3549C5 62.9679 5 58.5342 5 49.6667V30.3333Z" fill="#330000"/>
<path d="M38.9211 48.9907H28.0738L25.8668 56.0224C25.8055 56.2836 25.5649 56.4687 25.3032 56.4559H19.8091C19.4958 56.4559 19.3862 56.2793 19.4804 55.9261L28.872 28.1845C28.966 27.8956 29.0599 27.5665 29.1538 27.1972C29.2767 26.5546 29.3396 25.9015 29.3417 25.2467C29.3148 25.0532 29.4848 24.8823 29.6704 24.9095H37.1367C37.3554 24.9095 37.4806 24.9898 37.5123 25.1503L48.172 55.9742C48.2659 56.2955 48.1719 56.4561 47.8902 56.4558H41.7855C41.5714 56.4802 41.367 56.3334 41.316 56.1187L38.9211 48.9907ZM29.7642 42.9222H37.1837C35.9647 38.7568 34.589 34.6461 33.474 30.4482C32.271 34.6532 30.9585 38.8412 29.7642 42.9222Z" fill="#FF9A00"/>
<path d="M54.5107 30.0146C54.0318 30.0343 53.5542 29.9501 53.1091 29.7675C52.6641 29.5849 52.2616 29.308 51.928 28.955C51.5954 28.5866 51.337 28.1544 51.1678 27.6833C50.9985 27.2122 50.9217 26.7114 50.9418 26.2097C50.9248 25.713 51.01 25.2182 51.1921 24.7576C51.3742 24.297 51.6489 23.881 51.9984 23.5367C52.3445 23.196 52.753 22.929 53.2004 22.7513C53.6477 22.5736 54.125 22.4886 54.6046 22.5012C55.7317 22.5012 56.6161 22.8464 57.2578 23.5367C57.5817 23.8955 57.8335 24.3162 57.9987 24.7749C58.1638 25.2336 58.2392 25.7211 58.2204 26.2097C58.24 26.7134 58.1608 27.2159 57.9873 27.6875C57.8139 28.1591 57.5498 28.5901 57.2108 28.955C56.8565 29.3132 56.4336 29.5923 55.9689 29.7747C55.5042 29.957 55.0077 30.0387 54.5107 30.0146ZM51.2705 55.974V32.9524C51.2705 32.6635 51.3953 32.5189 51.6462 32.5189H57.4221C57.6724 32.5189 57.7976 32.6634 57.7978 32.9524V55.974C57.7978 56.2954 57.6726 56.4559 57.4221 56.4557H51.6932C51.4115 56.4557 51.2706 56.2951 51.2705 55.974Z" fill="#FF9A00"/>
</svg>
