<svg width="80" height="80" viewBox="0 0 80 80" fill="none" xmlns="http://www.w3.org/2000/svg">
<g clip-path="url(#clip0_169_1953)">
<path d="M24.649 72.0176L10.9648 58.3334C9.34378 56.6649 8.33325 54.3176 8.33325 52.0176C8.33325 50.9544 8.93325 49.2913 9.38588 48.3334L22.0175 22.0176L24.649 72.0176Z" fill="#01579B"/>
<path d="M71.4913 24.6493L57.807 10.9651C56.6123 9.76507 54.1228 8.3335 52.0176 8.3335C50.2071 8.3335 48.4334 8.69665 47.2807 9.38613L22.0176 22.0177L71.4913 24.6493Z" fill="#40C4FF"/>
<path d="M40.9649 88.3333H74.1228V74.1228L49.386 66.228L26.7544 74.1228L40.9649 88.3333Z" fill="#40C4FF"/>
<path d="M22.0176 64.6492C22.0176 68.8702 22.5492 69.9071 24.6492 72.0176L26.7544 74.1228H74.1228L50.9649 47.8071L22.0176 22.0176V64.6492Z" fill="#29B6F6"/>
<path d="M64.1228 22.0176H22.0176L74.1228 74.1228H88.3334V41.4913L71.4913 24.6492C69.1281 22.2755 67.0228 22.0176 64.1228 22.0176Z" fill="#01579B"/>
<path opacity="0.2" d="M25.1755 72.5439C23.0702 70.4281 22.5439 68.3492 22.5439 64.6492V22.5439L22.0176 22.0176V64.6492C22.0176 68.3492 22.0176 69.3755 25.1755 72.5439L26.7544 74.1228L25.1755 72.5439Z" fill="white"/>
<path opacity="0.2" d="M87.807 40.9648V73.5964H73.5964L74.1228 74.1227H88.3333V41.4912L87.807 40.9648Z" fill="#263238"/>
<path opacity="0.2" d="M71.4913 24.6492C68.8807 22.0386 66.7439 22.0176 63.5965 22.0176H22.0176L22.5439 22.5439H63.5965C65.1702 22.5439 69.1334 22.2807 71.4913 24.6492Z" fill="white"/>
<path opacity="0.2" d="M87.8069 40.9651L71.4911 24.6493L57.8069 10.9651C56.6122 9.76507 54.1227 8.3335 52.0175 8.3335C50.2069 8.3335 48.4333 8.69665 47.2806 9.38613L22.0175 22.0177L9.38588 48.3335C8.93325 49.2914 8.33325 50.9545 8.33325 52.0177C8.33325 54.3177 9.34378 56.6651 10.9648 58.3335L23.5754 70.8545C23.8754 71.223 24.2333 71.6019 24.649 72.0177L25.1754 72.544L26.7543 74.123L40.4385 87.8072L40.9648 88.3335H73.5964H74.1227V74.123H88.3332V74.0861V41.4914L87.8069 40.9651Z" fill="url(#paint0_radial_169_1953)"/>
</g>
<defs>
<radialGradient id="paint0_radial_169_1953" cx="0" cy="0" r="1" gradientUnits="userSpaceOnUse" gradientTransform="translate(48.3332 48.3335) scale(40)">
<stop stop-color="white" stop-opacity="0.1"/>
<stop offset="1" stop-color="white" stop-opacity="0"/>
</radialGradient>
<clipPath id="clip0_169_1953">
<rect width="80" height="80" fill="white"/>
</clipPath>
</defs>
</svg>
