<svg width="81" height="80" viewBox="0 0 81 80" fill="none" xmlns="http://www.w3.org/2000/svg">
<g clip-path="url(#clip0_169_1923)">
<path fill-rule="evenodd" clip-rule="evenodd" d="M0.333252 0H80.3333V80H0.333252V0Z" fill="#D73F30"/>
<path fill-rule="evenodd" clip-rule="evenodd" d="M25.9333 58.1247V23.3759C25.9333 23.1279 26.0214 22.8863 26.1814 22.6959C26.2588 22.6035 26.3554 22.5291 26.4646 22.478C26.5738 22.4269 26.6928 22.4002 26.8133 22.3999H30.1382C30.2548 22.4001 30.3699 22.4268 30.4747 22.4781C30.5795 22.5294 30.6712 22.6039 30.743 22.6959C30.8934 22.8879 30.9733 23.1231 30.9733 23.3663V39.7343L47.9942 22.3999H52.8534C53.215 22.3999 53.5446 22.6079 53.6982 22.9359C53.7722 23.0931 53.796 23.2694 53.7662 23.4406C53.7364 23.6118 53.6545 23.7697 53.5318 23.8927L40.367 37.0591L54.3349 57.4495C54.4525 57.621 54.5159 57.8238 54.5171 58.0317C54.5182 58.2396 54.457 58.4431 54.3414 58.6159C54.2208 58.7956 54.058 58.9428 53.8671 59.0447C53.6763 59.1465 53.4633 59.1998 53.2469 59.1999H48.9974L36.6245 40.7999L30.9766 46.4687L30.8805 58.0975C30.8781 58.3816 30.7736 58.6553 30.5862 58.8687C30.4945 58.9728 30.3818 59.0562 30.2554 59.1133C30.1291 59.1704 29.992 59.1999 29.8534 59.1999H26.8422C26.7138 59.1998 26.5873 59.1699 26.4726 59.1124C26.3579 59.0549 26.2582 58.9715 26.1814 58.8687C26.0206 58.654 25.9336 58.393 25.9333 58.1247Z" fill="white" stroke="white"/>
</g>
<defs>
<clipPath id="clip0_169_1923">
<rect width="80" height="80" fill="white" transform="translate(0.333252)"/>
</clipPath>
</defs>
</svg>
