<svg width="80" height="80" viewBox="0 0 80 80" fill="none" xmlns="http://www.w3.org/2000/svg">
<path d="M75.376 29.5503C74.4096 28.8351 72.896 28.8687 72.3632 29.4159C64.3712 34.3343 52.6464 37.0687 39.3232 37.0687C26.0016 37.0687 13.744 34.3359 6.28322 29.4159C4.73122 28.3167 3.49922 28.9343 2.88642 29.3855C1.92002 30.1007 1.28322 30.7007 1.76482 32.6527C4.37762 43.2655 22.2704 47.9999 39.856 47.9999C57.44 47.9999 75.616 43.3183 76.7792 33.1679C76.9552 31.6319 75.9872 30.0015 75.376 29.5503Z" fill="#E38C03"/>
<path d="M75.376 45.5503C74.4096 44.8351 72.896 44.8687 72.3632 45.4159C64.3712 50.3343 52.6464 53.0687 39.3232 53.0687C26.0016 53.0687 13.744 50.3359 6.28322 45.4159C4.73122 44.3167 3.49922 44.9343 2.88642 45.3855C1.92002 46.1007 1.28322 46.7007 1.76482 48.6527C4.37762 59.2655 22.2704 63.9999 39.856 63.9999C57.44 63.9999 75.616 59.3199 76.7792 49.1679C76.9552 47.6319 75.9872 46.0015 75.376 45.5503Z" fill="#E38C03"/>
<path d="M75.376 61.5504C74.4096 60.8352 72.896 60.8688 72.3632 61.416C64.3712 66.3344 52.6464 69.0688 39.3232 69.0688C26.0016 69.0688 13.744 66.336 6.28322 61.416C4.73122 60.3168 3.49922 60.9344 2.88642 61.3856C1.92002 62.1008 1.28322 62.7008 1.76482 64.6528C4.37762 75.2656 22.2704 80 39.856 80C57.44 80 75.616 75.3184 76.7792 65.168C76.9552 63.632 75.9872 62.0016 75.376 61.5504ZM40.8 0C22.5376 0 3.20002 5.8672 3.20002 16C3.20002 26.1344 22.5376 32 40.8 32C59.0624 32 78.4 26.1328 78.4 16C78.4 5.8656 59.0624 0 40.8 0Z" fill="#E38C03"/>
</svg>
