<svg width="80" height="80" viewBox="0 0 80 80" fill="none" xmlns="http://www.w3.org/2000/svg">
<path d="M59.1296 0C56.4192 0 54.0672 0.5328 51.8976 1.072C55.6976 2.6832 58.0496 4.6592 59.3136 5.5568C62.2096 8.0656 63.8336 10.5808 66.728 14.7088C67.2656 15.6048 68.168 16.8592 68.712 18.8288C69.256 20.6208 69.256 22.0576 69.256 23.4944C69.256 25.4704 69.072 27.0832 68.888 28.6944C68.712 29.9552 68.712 30.4944 68.536 30.8528C68.536 31.0352 68.536 31.2096 68.352 31.5664C68.352 32.4624 68.352 32.8288 68.536 33.5424C68.536 34.2576 68.712 34.9792 68.712 36.2336C68.896 38.5664 68.896 40.1792 68.536 42.1472V42.8688C68.168 44.4816 67.808 46.1008 66.904 47.5296C67.088 47.8928 67.2656 48.0688 67.448 48.4256C68.352 47.1712 69.072 45.9168 69.7936 44.488C71.968 40.536 73.232 37.1312 74.136 34.6224C75.76 29.9552 76.664 26.5424 77.208 24.0336C78.472 18.6528 78.6544 16.1456 78.112 13.272C78.112 12.376 77.752 10.7552 76.848 9.144C74.856 5.5568 71.784 3.944 69.616 2.8656C68.1696 2.1504 64.3696 0.176 59.1296 0ZM19.968 0.792C17.8848 0.7504 15.344 0.9808 12.4896 2.3264C11.5856 2.6912 8.87361 3.9456 6.70721 6.8112C5.25921 8.6032 4.17921 11.296 3.63521 14.344C3.09121 17.0336 2.90721 20.272 3.99521 26.368C4.71521 30.6704 5.44321 33.5424 6.89121 39.456C7.07361 40.1792 8.15521 43.408 10.5072 50.584L10.6832 50.9408C11.0496 52.1952 12.1296 54.8864 14.4816 57.5776C16.1056 59.3696 17.5536 60.4496 18.824 60.4496H19.176C21.528 60.4496 23.16 58.6576 24.6 57.2192C24.6 57.0384 28.04 52.9168 29.304 51.4816C29.12 51.2992 28.7664 51.2992 28.584 51.1168C26.416 49.8624 24.784 47.8928 23.52 45.736C21.352 41.7904 21.5296 37.8448 21.888 35.8688L22.072 32.8288C21.352 27.9808 21.536 23.32 22.44 18.6528C23.16 14.7072 24.064 10.7632 27.312 6.6368C28.4 5.2 29.664 3.9456 30.928 3.048C28.0648 1.80453 25.0045 1.07655 21.888 0.8976C21.3024 0.848 20.6608 0.8064 19.968 0.792ZM42.6784 2.3264C41.7744 2.3264 40.8704 2.3264 39.9664 2.5088C36.3504 3.224 32.92 5.2 30.2064 8.6048C27.496 12.0176 26.776 15.24 26.056 19.0096C25.688 20.4464 25.688 21.7008 25.504 23.1376C26.592 22.2416 28.04 21.1616 30.208 20.6224C31.472 20.264 34.7264 19.192 37.44 20.8048C38.3424 21.344 39.6064 22.4224 40.8704 25.4704C43.5824 33.0032 40.8768 40.7184 40.5184 41.4336C40.3344 42.1472 39.9744 42.688 39.7904 43.0448C39.4304 43.9408 39.0704 44.664 38.7104 46.1008C38.5264 47.3536 38.3424 48.4336 38.3424 49.688C38.8864 49.688 39.4304 49.864 39.9664 50.2192C40.8704 51.1168 41.0544 52.3792 41.2384 52.9104C41.5984 55.784 41.5984 59.3712 41.5984 62.9584C41.5984 65.832 41.5984 68.5216 41.7744 70.3168C42.1424 74.4448 43.4064 77.3088 45.2144 78.7456C46.4784 79.8256 48.1008 79.8176 49.0064 80H49.3728C52.0848 80 56.4208 78.2064 58.0448 75.6976C58.9488 74.2608 59.3152 73.0064 59.6768 71.2128C59.8592 70.1344 59.8528 69.6016 60.0352 68.5216C60.0352 67.9824 60.2192 67.0864 60.2192 66.0144C60.2192 65.1184 60.3952 64.0384 60.5792 62.776C60.7632 59.728 61.2992 56.1472 61.4832 54.1712C61.6672 51.8384 62.7472 49.8624 63.6512 48.608C62.3872 48.4256 61.1232 47.3536 60.4032 45.56C59.3152 43.584 59.1312 43.0448 58.9472 42.1472C58.7712 41.4336 58.4112 40.536 57.1392 37.8448C54.4288 31.7488 54.0752 29.9568 54.0752 28.5184C53.8912 26.5424 53.7072 23.8592 55.8832 22.0656C59.1312 19.192 63.2912 19.3744 65.4592 20.0896V19.7248C65.0992 18.296 64.3776 17.216 63.8352 16.5024C61.1232 12.3744 59.6752 10.224 57.1408 8.072C56.0592 7.176 53.3488 5.016 49.3728 3.5872C47.5648 3.048 45.3888 2.3264 42.6784 2.3264ZM62.6624 23.3616C61.3504 23.2704 59.6752 23.4944 58.2272 24.7568C57.5072 25.4704 57.5072 26.9072 57.6912 28.1616C57.6912 29.0576 57.8672 30.312 60.5792 36.416C61.8432 39.2816 62.2032 40.1792 62.3872 40.9008C62.5712 41.6144 62.7472 41.9728 63.8352 43.9408C64.0176 44.3056 64.1952 44.664 64.5552 45.0208C64.9152 44.4816 65.0992 43.584 65.2752 42.1472L65.4592 41.6144C65.8192 40.0032 65.6416 38.7424 65.6416 36.5904C65.6416 35.512 65.4592 34.7984 65.4592 34.2576C65.2752 33.3616 65.2752 32.6464 65.2752 31.5664C64.9152 31.0272 64.9152 30.8528 65.0992 30.488C65.0992 30.1312 65.2752 29.5984 65.4592 28.52C65.6416 27.0832 65.8272 25.8288 65.8272 24.392C65.4592 24.2096 65.2832 24.0336 64.9216 23.8592C64.9216 23.8592 63.968 23.4528 62.6624 23.3616ZM34.3952 24.0688C33.2432 23.936 31.9232 24.3088 31.112 24.5744C29.12 25.1136 27.864 26.3664 26.96 27.0832C26.416 27.6224 25.872 28.1616 25.328 28.8752C25.328 30.1312 25.504 31.392 25.688 32.6464V32.8288L25.328 36.416C24.7668 39.0526 25.218 41.8039 26.592 44.1232C27.496 45.9168 28.768 47.3552 30.3904 48.2512C31.4784 48.9648 32.9184 49.5056 34.544 49.8688C34.544 48.608 34.7264 47.1712 34.912 45.9168C35.2704 44.1248 35.632 43.2272 36.176 42.1472C36.3584 41.6144 36.5344 41.2576 36.9024 40.7184C37.0784 40.1792 39.6064 33.36 37.2544 27.0832C36.7184 25.6464 36.1744 24.7488 35.4464 24.392C35.1222 24.2125 34.7642 24.1025 34.3952 24.0688ZM60.9184 25.0928C61.392 25.064 61.8432 25.1072 62.0272 25.288C62.5712 25.6464 61.8432 26.5424 61.6592 26.7248C61.4832 26.9072 61.1232 27.264 60.5792 27.4464C59.8592 27.6224 59.3152 27.0832 59.1312 27.0832C58.9488 26.9008 58.4112 26.368 58.5952 25.8288C58.7712 25.4704 58.9552 25.4704 59.6752 25.288C60.0801 25.1725 60.4976 25.107 60.9184 25.0928ZM33.7456 26.5776C34.3536 26.536 34.8608 26.7664 35.2704 26.9008C35.8144 27.0832 36.3504 27.264 36.3504 27.6208C36.5344 28.1616 35.9984 28.5184 35.8144 28.6928C35.2704 29.2336 34.3664 29.24 34.3664 29.24C33.4624 29.24 32.92 28.7008 32.5584 28.1616C32.376 27.9792 32.1984 27.6224 32.3824 27.2656C32.5584 26.9072 32.92 26.7248 33.1024 26.7248C33.328 26.6336 33.5408 26.592 33.7456 26.5776ZM66.9056 50.0448C66.0032 51.2992 64.7392 52.9168 64.5536 55.0688C64.5536 55.4256 64.5536 55.608 64.3712 55.9648C65.8192 56.3232 67.0912 56.3232 68.3552 56.1472C71.2496 55.784 73.2336 54.3472 73.5936 53.9904C74.8576 53.0928 76.4896 51.2992 76.1216 50.584C75.9456 50.2272 75.4016 50.4016 72.5056 50.584C71.7856 50.584 69.6176 51.1232 68.1696 50.7664H67.8096C67.4496 50.584 67.0896 50.4016 66.9056 50.0448ZM35.4464 53.632C35.0848 54.1712 34.5488 54.528 34.1888 54.8864C32.6266 55.8353 30.9107 56.504 29.1184 56.8624C27.4944 57.4016 26.5904 57.4016 26.5904 57.9424C26.4064 58.656 28.2144 59.5536 29.1184 59.9104C32.1968 61.1648 35.2688 60.4496 35.8128 60.2688C36.1728 60.0864 37.0768 59.728 37.9808 59.1888C37.9808 57.2208 37.8048 55.4256 37.6208 53.9888V53.808H37.4368C36.8928 53.808 36.1728 53.8144 35.4464 53.632Z" fill="#32648C"/>
</svg>
