<svg width="80" height="80" viewBox="0 0 80 80" fill="none" xmlns="http://www.w3.org/2000/svg">
<path d="M45.1888 12.1201V24.2417L66.1824 36.3633V24.2417L45.1888 12.1201ZM3.19995 24.2417V36.3633L13.696 42.4241V30.3025L3.19995 24.2417ZM34.6912 30.3025L24.1952 36.3633V72.7265L34.6912 78.7873V54.5457L45.1888 60.6065V48.4849L34.6912 42.4241V30.3025Z" fill="#E55B2D"/>
<path d="M45.1887 12.1201L13.6975 30.3041V42.4257L34.6895 30.3041V42.4257L45.1887 36.3649V12.1201ZM76.6799 18.1809L66.1839 24.2417V36.3633L76.6799 30.3025V18.1809ZM55.6863 42.4241L45.1887 48.4849V60.6065L55.6847 54.5457V42.4241H55.6863ZM45.1887 60.6065L34.6911 54.5457V78.7873L45.1887 72.7265V60.6081V60.6065Z" fill="#ED8E24"/>
<path d="M45.1888 0L3.19995 24.2416L13.696 30.3024L45.1903 12.12L66.184 24.2416L76.6815 18.1808L45.1888 0ZM45.1888 36.3632L34.6912 42.424L45.1888 48.4848L55.6848 42.424L45.1888 36.3632Z" fill="#F8BF3C"/>
</svg>
