<svg width="161" height="70" viewBox="0 0 161 70" fill="none" xmlns="http://www.w3.org/2000/svg">
<g filter="url(#filter0_d_250_3226)">
<path d="M83.03 60.25H20.03V62.25H83.03V60.25Z" fill="white"/>
<path fill-rule="evenodd" clip-rule="evenodd" d="M49.423 15.79H26.4935C25.1486 15.79 23.8993 16.1989 22.8629 16.899C21.8165 17.606 20.9872 18.61 20.496 19.79C20.2575 20.363 20.0987 20.9775 20.0335 21.6196C20.0114 21.8379 20 22.0594 20 22.2835V22.2835V33.2875V39.7785V39.781H49.423V33.2875H26.4935V22.2835H49.423V15.79Z" fill="white"/>
<path fill-rule="evenodd" clip-rule="evenodd" d="M68.5987 42.196H68.5813V57.4907H70.5793V57.4907H81.8955V57.4907V61.9387H83.8935V57.4907V55.4927V42.196H83.8933H81.8955H70.5793H68.5987ZM70.5793 44.194V55.4927H81.8955V44.194H70.5793Z" fill="white"/>
<path fill-rule="evenodd" clip-rule="evenodd" d="M20 48.7669V44.194V42.196H21.998H34.1283V44.194H34.1283V48.7669H34.1283V50.7649H34.1283V50.765H32.1303V50.7649H21.998V57.4907H20V50.7649V48.7669ZM32.1303 44.194H21.998V48.7669H32.1303V44.194Z" fill="white"/>
<path fill-rule="evenodd" clip-rule="evenodd" d="M135.612 15.79H148.644V22.2835H135.612V39.6236H129.118V22.2835H116.226V15.79H129.118H135.612Z" fill="white"/>
<path fill-rule="evenodd" clip-rule="evenodd" d="M85.7915 22.2835V24.4614V30.9523V30.9549H108.024V33.2875H85.7915V39.6237H108.024V39.6237H114.518V24.4614H114.353H108.024H92.285V22.2835H114.278V15.79H92.285H85.7915V22.2835Z" fill="white"/>
<path fill-rule="evenodd" clip-rule="evenodd" d="M51.3687 42.196H51.3737H53.3666H64.6702H66.6682H66.6684V44.194H66.6682V55.4927H66.6684V57.4907H66.6682V57.4907H64.6702V57.4907H53.3666V57.4907H51.3687V42.196ZM64.6702 44.194H53.3666V55.4927H64.6702V44.194Z" fill="white"/>
<path fill-rule="evenodd" clip-rule="evenodd" d="M133.349 42.196H133.224V50.8424H133.349V50.8424H146.645V55.4927H133.349V57.4907H146.645V57.4908H148.643V57.4907H148.643V55.4927H148.643V50.8424H148.643V48.8444H148.643H146.645H135.222V44.194H148.643V42.196H135.222H133.349Z" fill="white"/>
<path fill-rule="evenodd" clip-rule="evenodd" d="M99.0882 44.1914V42.1934L87.7895 48.4546V50.4526L99.0882 44.1914ZM85.7915 42.1959H87.7895V57.4905H85.7915V42.1959Z" fill="white"/>
<path fill-rule="evenodd" clip-rule="evenodd" d="M122.874 42.1934V44.4861L118.227 47.8908V57.4905H116.226V42.1959H118.227V45.6031L122.874 42.1934ZM129.523 44.4861L124.872 47.8926V45.6049L129.523 42.1934V42.1959H131.521V57.4905H129.523V44.4861ZM122.874 42.1959H124.872V57.4905H122.874V42.1959Z" fill="white"/>
<path fill-rule="evenodd" clip-rule="evenodd" d="M36.1262 42.1187H38.1242V57.4907H36.1262V42.1187ZM49.4229 44.1166V42.1187L38.1242 48.3799V50.3779L49.4229 44.1166Z" fill="white"/>
<path fill-rule="evenodd" clip-rule="evenodd" d="M106.832 44.2852L106.833 44.2838L105.642 42.1934L104.455 44.2838L104.455 44.2838L101.861 48.8441H101.86L100.722 50.8421H110.569L109.43 48.8442H109.43L106.832 44.2852ZM105.646 46.365L105.643 46.3694L105.644 46.3717L104.236 48.8441H107.05L105.646 46.365ZM103.099 50.8422H100.722L96.938 57.4905H99.3131L103.099 50.8422ZM114.353 57.4905H111.973L108.189 50.8422H110.569L114.353 57.4905Z" fill="white"/>
<path fill-rule="evenodd" clip-rule="evenodd" d="M77.4499 24.4588H71.0588L70.1522 22.2835H64.6128L63.7286 24.4588H57.7821L61.411 15.79H73.7661L77.4499 24.4588ZM63.7288 24.4589L61.0889 30.9524H61.0888L57.5 39.7784H51.3687L55.0624 30.9522H55.0625L57.7823 24.4589H63.7288ZM73.7635 30.9524H61.0891L63.7289 24.4589H71.059H71.0591H77.4501L80.2098 30.9524H80.2096L83.8933 39.6235H77.3774L73.7635 30.9524Z" fill="white"/>
</g>
<defs>
<filter id="filter0_d_250_3226" x="0" y="0.572754" width="161" height="68.8945" filterUnits="userSpaceOnUse" color-interpolation-filters="sRGB">
<feFlood flood-opacity="0" result="BackgroundImageFix"/>
<feColorMatrix in="SourceAlpha" type="matrix" values="0 0 0 0 0 0 0 0 0 0 0 0 0 0 0 0 0 0 127 0" result="hardAlpha"/>
<feOffset dx="-8" dy="-8"/>
<feComposite in2="hardAlpha" operator="out"/>
<feColorMatrix type="matrix" values="0 0 0 0 0.0980392 0 0 0 0 0.0823529 0 0 0 0 0.0862745 0 0 0 1 0"/>
<feBlend mode="normal" in2="BackgroundImageFix" result="effect1_dropShadow_250_3226"/>
<feBlend mode="normal" in="SourceGraphic" in2="effect1_dropShadow_250_3226" result="shape"/>
</filter>
</defs>
</svg>
