<svg width="161" height="70" viewBox="0 0 161 70" fill="none" xmlns="http://www.w3.org/2000/svg">
<path d="M0 8L8 0H20V19H0V8Z" fill="#73FFB0"/>
<path d="M161 62L153 70L141 70L141 51L161 51L161 62Z" fill="#73FFB0"/>
<g filter="url(#filter0_d_250_2620)">
<path d="M8 0H161V62H8V0Z" fill="#191516"/>
<path d="M83.03 52.23H20.03V54.23H83.03V52.23Z" fill="white"/>
<path fill-rule="evenodd" clip-rule="evenodd" d="M49.423 7.77002H26.4935C25.1486 7.77002 23.8993 8.17885 22.8629 8.87901C21.8165 9.58597 20.9872 10.59 20.496 11.77C20.2575 12.343 20.0987 12.9575 20.0335 13.5996C20.0114 13.8179 20 14.0394 20 14.2635V14.2635V25.2675V31.7585V31.761H49.423V25.2675H26.4935V14.2635H49.423V7.77002Z" fill="white"/>
<path fill-rule="evenodd" clip-rule="evenodd" d="M68.5987 34.176H68.5813V49.4707H70.5793V49.4707H81.8955V49.4707V53.9187H83.8935V49.4707V47.4727V34.176H83.8933H81.8955H70.5793H68.5987ZM70.5793 36.174V47.4727H81.8955V36.174H70.5793Z" fill="white"/>
<path fill-rule="evenodd" clip-rule="evenodd" d="M20 40.7469V36.174V34.176H21.998H34.1283V36.174H34.1283V40.7469H34.1283V42.7449H34.1283V42.745H32.1303V42.7449H21.998V49.4707H20V42.7449V40.7469ZM32.1303 36.174H21.998V40.7469H32.1303V36.174Z" fill="white"/>
<path fill-rule="evenodd" clip-rule="evenodd" d="M135.612 7.77002H148.644V14.2635H135.612V31.6036H129.118V14.2635H116.226V7.77002H129.118H135.612Z" fill="white"/>
<path fill-rule="evenodd" clip-rule="evenodd" d="M85.7915 14.2635V16.4414V22.9323V22.9349H108.024V25.2675H85.7915V31.6036H108.024V31.6037H114.518V16.4414H114.353H108.024H92.285V14.2635H114.278V7.77002H92.285H85.7915V14.2635Z" fill="white"/>
<path fill-rule="evenodd" clip-rule="evenodd" d="M51.3687 34.176H51.3737H53.3666H64.6702H66.6682H66.6684V36.174H66.6682V47.4727H66.6684V49.4707H66.6682V49.4707H64.6702V49.4707H53.3666V49.4707H51.3687V34.176ZM64.6702 36.174H53.3666V47.4727H64.6702V36.174Z" fill="white"/>
<path fill-rule="evenodd" clip-rule="evenodd" d="M133.349 34.176H133.224V42.8224H133.349V42.8224H146.645V47.4727H133.349V49.4707H146.645V49.4707H148.643V49.4707H148.643V47.4727H148.643V42.8224H148.643V40.8244H148.643H146.645H135.222V36.174H148.643V34.176H135.222H133.349Z" fill="white"/>
<path fill-rule="evenodd" clip-rule="evenodd" d="M99.0882 36.1715V34.1735L87.7895 40.4347V42.4327L99.0882 36.1715ZM85.7915 34.176H87.7895V49.4707H85.7915V34.176Z" fill="white"/>
<path fill-rule="evenodd" clip-rule="evenodd" d="M122.874 34.1735V36.4662L118.227 39.8709V49.4707H116.226V34.176H118.227V37.5832L122.874 34.1735ZM129.523 36.4662L124.872 39.8727V37.585L129.523 34.1735V34.176H131.521V49.4707H129.523V36.4662ZM122.874 34.176H124.872V49.4707H122.874V34.176Z" fill="white"/>
<path fill-rule="evenodd" clip-rule="evenodd" d="M36.1262 34.0986H38.1242V49.4707H36.1262V34.0986ZM49.4229 36.0966V34.0986L38.1242 40.3599V42.3579L49.4229 36.0966Z" fill="white"/>
<path fill-rule="evenodd" clip-rule="evenodd" d="M106.832 36.2653L106.833 36.2639L105.642 34.1735L104.455 36.2639L104.455 36.2639L101.861 40.8242H101.86L100.722 42.8222H110.569L109.43 40.8243H109.43L106.832 36.2653ZM105.646 38.3451L105.643 38.3495L105.644 38.3518L104.236 40.8242H107.05L105.646 38.3451ZM103.099 42.8223H100.722L96.938 49.4706H99.3131L103.099 42.8223ZM114.353 49.4706H111.973L108.189 42.8223H110.569L114.353 49.4706Z" fill="white"/>
<path fill-rule="evenodd" clip-rule="evenodd" d="M77.4499 16.4388H71.0588L70.1522 14.2635H64.6128L63.7286 16.4388H57.7821L61.411 7.77002H73.7661L77.4499 16.4388ZM63.7288 16.4389L61.0889 22.9323H61.0888L57.5 31.7584H51.3687L55.0624 22.9322H55.0625L57.7823 16.4389H63.7288ZM73.7635 22.9323H61.0891L63.7289 16.4389H71.059H71.0591H77.4501L80.2098 22.9323H80.2096L83.8933 31.6035H77.3774L73.7635 22.9323Z" fill="white"/>
</g>
<defs>
<filter id="filter0_d_250_2620" x="0" y="0" width="161" height="70" filterUnits="userSpaceOnUse" color-interpolation-filters="sRGB">
<feFlood flood-opacity="0" result="BackgroundImageFix"/>
<feColorMatrix in="SourceAlpha" type="matrix" values="0 0 0 0 0 0 0 0 0 0 0 0 0 0 0 0 0 0 127 0" result="hardAlpha"/>
<feOffset dx="-8" dy="8"/>
<feComposite in2="hardAlpha" operator="out"/>
<feColorMatrix type="matrix" values="0 0 0 0 0.45098 0 0 0 0 1 0 0 0 0 0.690196 0 0 0 1 0"/>
<feBlend mode="normal" in2="BackgroundImageFix" result="effect1_dropShadow_250_2620"/>
<feBlend mode="normal" in="SourceGraphic" in2="effect1_dropShadow_250_2620" result="shape"/>
</filter>
</defs>
</svg>
