<svg width="129" height="48" viewBox="0 0 129 48" fill="none" xmlns="http://www.w3.org/2000/svg">
<path d="M63.03 45.25H0.0300293V47.25H63.03V45.25Z" fill="white"/>
<path fill-rule="evenodd" clip-rule="evenodd" d="M29.423 0.790039H6.49349C5.14864 0.790039 3.89928 1.19887 2.86292 1.89902C1.81646 2.60599 0.987168 3.60999 0.495995 4.79004C0.257509 5.363 0.098737 5.97747 0.0335251 6.61961C0.0113568 6.83789 0 7.05938 0 7.28352V7.28353V18.2875V24.7785V24.781H29.423V18.2875H6.49349V7.28353H29.423V0.790039Z" fill="white"/>
<path fill-rule="evenodd" clip-rule="evenodd" d="M48.5987 27.196H48.5813V42.4907H50.5793V42.4907H61.8955V42.4907V46.9387H63.8935V42.4907V40.4927V27.196H63.8933H61.8955H50.5793H48.5987ZM50.5793 29.194V40.4927H61.8955V29.194H50.5793Z" fill="white"/>
<path fill-rule="evenodd" clip-rule="evenodd" d="M0 33.7669V29.194V27.196H1.998H14.1283V29.194H14.1283V33.7669H14.1283V35.7649H14.1283V35.765H12.1303V35.7649H1.998V42.4907H0V35.7649V33.7669ZM12.1303 29.194H1.998V33.7669H12.1303V29.194Z" fill="white"/>
<path fill-rule="evenodd" clip-rule="evenodd" d="M115.612 0.790039H128.644V7.28353H115.612V24.6236H109.118V7.28353H96.2261V0.790039H109.118H115.612Z" fill="white"/>
<path fill-rule="evenodd" clip-rule="evenodd" d="M65.7915 7.28353V9.4614V15.9523V15.9549H88.0243V18.2875H65.7915V24.6237H88.0243V24.6237H94.5178V9.4614H94.3529H88.0243H72.285V7.28353H94.2779V0.790039H72.285H65.7915V7.28353Z" fill="white"/>
<path fill-rule="evenodd" clip-rule="evenodd" d="M31.3687 27.196H31.3737H33.3666H44.6702H46.6682H46.6684V29.194H46.6682V40.4927H46.6684V42.4907H46.6682V42.4907H44.6702V42.4907H33.3666V42.4907H31.3687V27.196ZM44.6702 29.194H33.3666V40.4927H44.6702V29.194Z" fill="white"/>
<path fill-rule="evenodd" clip-rule="evenodd" d="M113.349 27.196H113.224V35.8424H113.349V35.8424H126.645V40.4927H113.349V42.4907H126.645V42.4908H128.643V42.4907H128.643V40.4927H128.643V35.8424H128.643V33.8444H128.643H126.645H115.222V29.194H128.643V27.196H115.222H113.349Z" fill="white"/>
<path fill-rule="evenodd" clip-rule="evenodd" d="M79.0882 29.1914V27.1934L67.7895 33.4546V35.4526L79.0882 29.1914ZM65.7915 27.1959H67.7895V42.4905H65.7915V27.1959Z" fill="white"/>
<path fill-rule="evenodd" clip-rule="evenodd" d="M102.874 27.1934V29.4861L98.2266 32.8908V42.4905H96.2261V27.1959H98.2266V30.6031L102.874 27.1934ZM109.523 29.4861L104.872 32.8926V30.6049L109.523 27.1934V27.1959H111.521V42.4905H109.523V29.4861ZM102.874 27.1959H104.872V42.4905H102.874V27.1959Z" fill="white"/>
<path fill-rule="evenodd" clip-rule="evenodd" d="M16.1262 27.1187H18.1242V42.4907H16.1262V27.1187ZM29.4229 29.1166V27.1187L18.1242 33.3799V35.3779L29.4229 29.1166Z" fill="white"/>
<path fill-rule="evenodd" clip-rule="evenodd" d="M86.8323 29.2852L86.8331 29.2838L85.6418 27.1934L84.4555 29.2838L84.4555 29.2838L81.8606 33.8441H81.8604L80.7215 35.8421H90.5692L89.4304 33.8442H89.4304L86.8323 29.2852ZM85.6456 31.365L85.643 31.3694L85.6443 31.3717L84.2357 33.8441H87.0502L85.6456 31.365ZM83.0993 35.8422H80.7217L76.938 42.4905H79.3131L83.0993 35.8422ZM94.3529 42.4905H91.9728L88.1891 35.8422H90.5692L94.3529 42.4905Z" fill="white"/>
<path fill-rule="evenodd" clip-rule="evenodd" d="M57.4499 9.45885H51.0588L50.1522 7.28353H44.6128L43.7286 9.45885H37.7821L41.411 0.790039H53.7661L57.4499 9.45885ZM43.7288 9.45888L41.0889 15.9524H41.0888L37.5 24.7784H31.3687L35.0624 15.9522H35.0625L37.7823 9.45888H43.7288ZM53.7635 15.9524H41.0891L43.7289 9.45888H51.059H51.0591H57.4501L60.2098 15.9524H60.2096L63.8933 24.6235H57.3774L53.7635 15.9524Z" fill="white"/>
</svg>
